<?xml version="1.0" encoding="UTF-8" standalone="no"?>
<svg
   fill-rule="evenodd"
   height="841.89pt"
   viewBox="0 0 595.276 841.89"
   width="595.276pt"
   version="1.1"
   id="svg679"
   sodipodi:docname="bees-edit.svg"
   inkscape:version="1.2.2 (b0a8486, 2022-12-01)"
   xmlns:inkscape="http://www.inkscape.org/namespaces/inkscape"
   xmlns:sodipodi="http://sodipodi.sourceforge.net/DTD/sodipodi-0.dtd"
   xmlns="http://www.w3.org/2000/svg"
   xmlns:svg="http://www.w3.org/2000/svg">
  <defs
     id="defs683" />
  <sodipodi:namedview
     id="namedview681"
     pagecolor="#ffffff"
     bordercolor="#000000"
     borderopacity="0.25"
     inkscape:showpageshadow="2"
     inkscape:pageopacity="0.0"
     inkscape:pagecheckerboard="0"
     inkscape:deskcolor="#d1d1d1"
     inkscape:document-units="pt"
     showgrid="false"
     inkscape:zoom="0.83077896"
     inkscape:cx="533.2345"
     inkscape:cy="482.07769"
     inkscape:window-width="1792"
     inkscape:window-height="1067"
     inkscape:window-x="0"
     inkscape:window-y="25"
     inkscape:window-maximized="1"
     inkscape:current-layer="g677" />
  <g
     transform="matrix(.65057314 0 0 .65057314 -19.345132 -541.35594)"
     id="g677">
    <g
       id="g477"
       transform="matrix(2.6871288,0,0,2.6871288,-344.59486,-2055.9174)">
      <path
         d="m 172.327,1187.28 c -1.492,0.25 -0.697,-1.8 -2.018,-1.73 0.711,-1.38 1.649,0.97 2.018,1.73 z"
         id="path283" />
      <path
         d="m 182.998,1186.42 h 1.155 c -0.014,3.79 0.97,7.71 2.882,10.38 0.298,1.18 -0.981,2.26 0.577,2.31 -0.101,0.37 -0.507,0.45 -0.577,0.86 1.223,0.69 0.58,2.9 2.595,3.17 -0.126,0.36 -0.368,0.59 -0.863,0.58 1.093,2.23 1.569,3.32 2.882,5.19 -3.46,-0.89 -4.372,-6.5 -5.478,-9.8 -1.478,-3.54 -4.314,-7.83 -3.173,-12.69 z"
         id="path285" />
      <path
         d="m 171.464,1187.57 c 0.464,-0.08 0.497,0.27 0.863,0.29 0.042,3.3 0.913,6.36 0.577,9.52 -1.356,-3.34 -1.496,-6.07 -1.44,-9.81 z"
         id="path287" />
      <path
         d="m 261.15,1188.15 c 0.778,0.52 -0.842,1.06 -0.288,2.3 -0.552,-0.54 -0.524,0.18 -1.444,0 0.566,-0.54 0.09,-1.05 0,-1.73 0.544,-0.59 1.5,-0.33 1.732,-0.57 z"
         id="path289" />
      <path
         d="m 269.224,1189.59 c 0.969,-0.01 1.525,0.4 2.018,0.86 -2.03,1.05 0.531,4.51 -1.152,4.91 0.067,0.5 0.495,0.65 1.152,0.57 -0.263,0.8 -0.528,1.59 -1.441,1.73 0.46,0.22 -0.065,1.41 0.866,1.16 -0.723,1.93 -1.917,5.1 0,6.92 -0.281,0.29 -0.57,0.58 -0.866,0.86 -1.075,0.14 0.384,-1.33 -1.441,-0.86 0.556,-3.43 0.362,-10.97 0.864,-16.15 z"
         id="path291" />
      <path
         d="m 189.63,1189.88 c 0.67,-0.1 1.108,0.04 1.444,0.29 0.206,0.88 -0.296,1.05 -0.289,1.73 1.76,1.93 0.235,4.21 2.307,5.48 -0.028,5.34 3.391,9.65 5.48,13.84 -0.577,0 -1.155,0 -1.732,0 -0.584,-1.96 -2.86,-3.62 -2.307,-5.77 -3.013,-3.65 -5.022,-10.62 -4.903,-15.57 z"
         id="path293" />
      <path
         d="m 258.841,1191.03 c 0.468,-0.08 0.498,0.27 0.866,0.29 -0.204,1.62 -0.249,3.4 -1.152,4.33 -0.171,1.01 1.362,0.94 0.575,1.73 -2.107,-1.05 -0.194,-4.01 -0.289,-6.35 z"
         id="path295" />
      <path
         d="m 194.822,1193.05 c 0.5,-0.39 3.093,0.8 2.018,2.02 -0.594,-0.08 -0.069,-1.28 -0.864,-1.15 0.751,3.88 1.622,9.84 4.614,13.55 -0.281,0.29 -0.57,0.58 -0.866,0.86 1.751,1.68 1.3,4.4 3.75,4.91 0.087,0.66 -0.835,0.32 -0.866,0.86 -1.074,-0.37 -2.131,-0.75 -2.018,-2.31 -1.734,-1.55 -3.583,-7.23 -4.902,-11.53 -1.057,-3.45 -1.772,-5.03 -0.866,-7.21 z"
         id="path297" />
      <path
         d="m 197.417,1194.49 c 1.271,0.85 2.453,1.78 3.462,2.89 -1.295,0.25 -3.337,-1.03 -3.462,-2.89 z"
         id="path299" />
      <path
         d="m 280.758,1208.62 c 0.574,0.39 1.123,0.8 0.866,2.02 -0.457,0.03 -1.1,-0.14 -1.155,0.29 -0.809,-1.25 0.975,-2.02 -0.863,-2.6 0.062,-3.59 1.659,-6.4 -0.289,-9.22 5.144,-3.91 2.247,8.5 1.441,9.51 z"
         id="path301" />
      <path
         d="m 287.105,1199.68 c 0.928,3.38 -0.874,4.96 -0.29,7.79 -0.231,-0.15 -0.468,-0.3 -0.866,-0.29 0.16,0.51 0.149,1.2 0.577,1.44 -1.031,0.78 -1.345,3.34 -0.288,5.19 -0.839,0.07 -0.995,-0.54 -1.441,-0.86 -0.293,-5.12 0.875,-9.91 0.864,-13.56 0.952,0.76 -0.099,0.87 1.444,0.29 z"
         id="path303" />
      <path
         d="m 261.436,1199.68 c 1.395,0.58 -0.947,0.99 -0.286,2.6 -0.826,-0.7 -0.617,-2.18 0.286,-2.6 z"
         id="path305" />
      <path
         d="m 218.469,1201.13 h 0.866 c 0.411,4.05 1,6.52 1.729,8.36 -2.617,-0.66 -1.939,-5.57 -2.595,-8.36 z"
         id="path307" />
      <path
         d="m 290.564,1204.01 c 0.246,-0.05 0.271,0.11 0.288,0.29 v 0.57 c -0.511,0.07 -1.443,-0.29 -1.152,0.58 -1.507,-0.66 0.762,-1.43 0.864,-1.44 z"
         id="path309" />
      <path
         d="m 289.123,1205.74 h 1.151 c -0.095,0.58 0.059,0.9 0.578,0.86 -1.255,1.57 -0.219,3.53 -0.863,5.48 -0.348,-0.32 -0.524,-0.82 -1.444,-0.57 0.012,-2.94 0.693,-3.68 0.578,-5.77 z"
         id="path311" />
      <path
         d="m 307.001,1206.31 c 1.102,0.25 1.39,1.31 1.732,2.31 -0.695,0.12 -0.627,-0.52 -1.443,-0.29 0.168,-0.93 -0.195,-1.34 -0.289,-2.02 z"
         id="path313" />
      <path
         d="m 266.629,1208.05 c 0.013,0.87 -0.608,1.12 -0.865,1.73 -0.292,-0.19 -0.297,-0.67 -0.866,-0.58 -0.098,-1.31 0.793,-1.63 1.731,-1.15 z"
         id="path315" />
      <path
         d="m 288.834,1212.08 c 0.516,-0.03 0.608,0.35 1.155,0.29 -0.118,1.56 0.009,2.87 0.575,3.75 -0.608,0.26 -0.853,0.88 -1.73,0.86 -0.226,-1.53 -0.801,-2.95 0,-4.9 z"
         id="path317" />
      <path
         d="m 293.448,1216.41 c 0.46,0.21 -0.066,1.41 0.866,1.15 -0.454,0.22 -0.432,0.92 -1.154,0.87 -0.4,-1.58 -0.18,-3.38 0.865,-4.04 v 2.31 c -0.235,-0.06 -0.288,-0.29 -0.577,-0.29 z"
         id="path319" />
      <path
         d="m 183.865,1219.29 c 0.922,2.59 0.83,8.04 0.863,11.54 -1.275,0.64 -1.157,-1.1 -0.575,-2.02 -1.009,-2.04 -0.49,-7.63 -0.288,-9.52 z"
         id="path321" />
      <path
         d="m 189.342,1221.31 v 0.87 c -0.601,0.12 -0.762,-0.2 -1.153,-0.29 0.069,-0.51 0.496,-0.66 1.153,-0.58 z"
         id="path323" />
      <path
         d="m 194.244,1222.18 c 0.341,1.1 0.303,2.58 1.155,3.17 -1.506,2.34 0.331,10.77 1.729,12.4 0.212,0.79 -0.572,0.58 -0.577,1.15 -2.766,-2.71 -2.034,-7.72 -3.459,-12.11 0.366,-1.07 1.127,-3.87 0,-4.04 0.068,-0.5 0.495,-0.66 1.152,-0.57 z"
         id="path325" />
      <path
         d="m 189.056,1222.46 c 1.454,5 0.004,10.27 2.018,14.42 -3.023,-3.96 -2.751,-9.3 -2.018,-14.42 z"
         id="path327" />
      <path
         d="m 199.147,1223.91 c -0.089,0.6 -0.819,1.72 0.577,1.44 -0.542,3.79 1.15,5.9 1.155,10.09 0.211,0.27 0.523,0.44 0.864,0.58 -0.747,2.91 1.825,3.73 0.577,5.48 -3.246,-4.32 -3.145,-10.27 -4.903,-15.86 0.106,-1.05 0.681,-1.63 1.73,-1.73 z"
         id="path329" />
      <path
         d="m 179.825,1224.19 c 0.463,0.91 0.648,2.66 0.289,2.89 -1.213,-0.62 -0.164,-1.68 -0.289,-2.89 z"
         id="path331" />
      <path
         d="m 202.608,1225.92 c 0.622,-0.97 1.324,0.38 2.019,0.29 0.091,0.67 -0.047,1.11 -0.289,1.45 2.41,3.31 0.889,9.23 3.462,11.24 -1.343,1.07 0.295,1.3 0.864,2.02 0.425,1.1 -1.289,0.06 -0.864,1.15 -3.875,-3.67 -3.429,-12.64 -5.192,-16.15 z"
         id="path333" />
      <path
         d="m 176.943,1227.94 c 2.085,1.24 -0.743,4.68 -2.595,3.75 0,-0.38 0,-0.77 0,-1.15 2.377,0.1 1.324,-2.08 2.595,-2.6 z"
         id="path335" />
      <path
         d="m 179.537,1227.94 c 1.222,0.13 0.671,1.13 0.288,1.73 -0.636,-0.03 -0.122,-1.22 -0.288,-1.73 z"
         id="path337" />
      <path
         d="m 240.963,1232.27 c -0.817,-0.36 -1.78,-0.36 -2.595,0 0.163,-1.31 2.37,-1.09 2.595,0 z"
         id="path339" />
      <path
         d="m 184.153,1231.98 c 1.026,-0.66 1.443,0.61 1.441,1.44 -1,0.04 -0.463,-1.46 -1.441,-1.44 z"
         id="path341" />
      <path
         d="m 302.099,1231.98 c -0.534,0.43 -0.433,1.49 -1.442,1.44 0.369,-0.59 0.46,-1.46 1.442,-1.44 z"
         id="path343" />
      <path
         d="m 227.697,1234 c 1.187,-0.23 1.48,0.44 2.595,0.29 0.789,1.93 1.983,3.11 1.731,5.19 1.142,-0.21 0.868,2.79 2.883,2.59 0.159,0.64 -0.55,0.42 -0.575,0.87 -1.16,-0.09 -1.317,-1.18 -2.308,-1.44 -0.14,-2.16 -2.433,-4.17 -2.883,-6.92 -0.432,0.45 -1.645,0.42 -1.443,-0.58 z"
         id="path345" />
      <path
         d="m 320.845,1238.61 c 0.866,0.19 1.117,1 1.153,2.02 -1.048,-0.01 -1.269,-0.84 -1.153,-2.02 z"
         id="path347" />
      <path
         d="m 259.418,1242.65 h 0.866 c 0.092,0.67 -0.047,1.11 -0.288,1.44 -0.429,-0.24 -0.418,-0.93 -0.578,-1.44 z"
         id="path349" />
      <path
         d="m 312.77,1243.52 c 0.802,2.63 -2.188,6.02 -1.731,9.51 -0.919,0.14 -1.205,0.91 -2.306,0.87 -0.734,-1.22 0.452,-1.46 0.864,-2.31 -1.225,-2.09 2.588,-4.43 1.442,-5.48 0.132,-1.31 1.704,-1.18 1.731,-2.59 z"
         id="path351" />
      <path
         d="m 276.433,1243.81 c 1,-0.21 1.035,1.01 0.578,1.44 -0.43,-0.25 -0.419,-0.93 -0.578,-1.44 z"
         id="path353" />
      <path
         d="m 333.532,1244.96 c 0.986,-0.11 1.218,1.67 0,1.44 0,-0.48 0,-0.96 0,-1.44 z"
         id="path355" />
      <path
         d="m 333.532,1246.69 c 0.902,0.16 0.444,1.67 0.865,2.31 -0.232,-0.16 -0.466,-0.31 -0.865,-0.29 0.381,-0.9 -0.078,-0.83 0,-2.02 z"
         id="path357" />
      <path
         d="m 231.446,1247.26 c 0.984,-0.21 0.475,1.07 1.153,1.16 -0.432,0.62 -0.704,-0.21 -1.441,0.29 -0.118,-0.7 0.526,-0.63 0.288,-1.45 z"
         id="path359" />
      <path
         d="m 224.814,1248.71 c 0.336,-0.05 0.513,0.06 0.575,0.29 -0.597,1.96 -0.277,3.69 -0.863,5.19 -0.019,1.26 1.65,0.84 1.44,2.3 -1.07,-0.18 -1.318,-1.18 -2.883,-0.86 -0.144,-2.7 1.084,-4.67 1.731,-6.92 z"
         id="path361" />
      <path
         d="m 328.055,1250.73 c -0.027,1.07 -0.325,0.82 0,1.72 -1.209,-0.04 -1.109,-1.78 0,-1.72 z"
         id="path363" />
      <path
         d="m 222.508,1253.9 c -1.395,-0.8 -2.314,-0.71 -3.751,-1.73 0.094,-0.52 4.318,0.66 3.751,1.73 z"
         id="path365" />
      <path
         d="m 292.871,1254.76 c 0.701,0.18 0.152,1.46 -0.576,1.16 0.045,-0.34 -0.063,-0.52 -0.289,-0.58 0.064,-0.42 0.86,-0.1 0.865,-0.58 z"
         id="path367" />
      <path
         d="m 306.137,1265.15 c 1.122,0.11 0.773,0.98 0.288,1.44 -0.734,-0.03 -0.681,-1.08 -0.288,-1.44 z"
         id="path369" />
      <path
         d="m 337.571,1265.15 h 0.864 c -0.059,0.9 0.194,2.11 -0.288,2.59 -0.597,-0.88 -0.984,-1.33 -0.576,-2.59 z"
         id="path371" />
      <path
         d="m 257.401,1266.3 c -0.969,3.64 -0.747,10.16 -4.037,12.98 -0.675,-0.1 -1.193,-0.35 -1.733,-0.58 -0.203,-1.66 1.555,-2.86 1.156,-3.75 3.155,-1.76 0.76,-8.13 4.614,-8.65 z"
         id="path373" />
      <path
         d="m 287.394,1271.78 c 1.925,0 1.213,2.11 0.863,3.46 -0.902,-0.54 -0.664,-2.22 -0.863,-3.46 z"
         id="path375" />
      <path
         d="m 257.69,1274.08 c 0.961,0.31 0.017,0.88 0.577,1.74 -0.289,0 -0.577,0 -0.866,0 0.598,1.39 -0.963,3.43 0,5.18 -1.773,0.06 -0.425,3.23 -2.596,2.89 0.924,-3.89 0.804,-7.99 2.885,-9.81 z"
         id="path377" />
      <path
         d="m 200.879,1276.39 c 0.23,0.15 0.467,0.3 0.864,0.29 0.037,0.52 -0.352,0.61 -0.289,1.15 -0.695,0.12 -0.626,-0.52 -1.441,-0.28 -0.254,-0.93 0.95,-0.4 0.866,-1.16 z"
         id="path379" />
      <path
         d="m 203.761,1276.68 c -0.446,0.42 -0.254,1.48 -0.287,2.31 -1.065,0.1 -1.206,-0.72 -1.443,-1.44 0.467,-0.4 0.712,-1.03 1.73,-0.87 z"
         id="path381" />
      <path
         d="m 202.608,1279.56 c 0.256,0.23 0.65,0.31 1.153,0.29 -1.197,0.92 0.317,1.28 0,2.89 -1.053,-0.46 -1.695,-1.97 -1.153,-3.18 z"
         id="path383" />
      <path
         d="m 213.566,1280.43 c 0.462,-0.81 1.079,0.62 1.732,0.57 -1.133,1.9 0.364,3.43 -0.577,4.91 -1.967,-0.25 -0.079,-4.34 -1.155,-5.48 z"
         id="path385" />
      <path
         d="m 219.046,1281 c 0.892,0.07 0.488,1.44 1.729,1.16 -1.173,1.22 0.348,5.74 0,7.79 0.047,0.33 0.526,0.24 0.866,0.28 -0.603,0.71 -0.412,0.62 -0.289,1.73 -2.776,-1.8 -2.18,-7.3 -2.306,-10.96 z"
         id="path387" />
      <path
         d="m 380.539,1281.58 c 0.233,0.15 0.468,0.3 0.863,0.29 0.038,0.52 -0.351,0.61 -0.286,1.16 -0.232,-0.16 -0.469,-0.31 -0.866,-0.29 -0.121,-0.61 0.198,-0.77 0.289,-1.16 z"
         id="path389" />
      <path
         d="m 203.474,1283.03 c 0.829,0.89 0.859,2.59 0.864,4.32 -0.493,-0.37 -1.133,-0.6 -1.152,-1.44 0.99,-0.25 -0.505,-1.52 0.288,-2.88 z"
         id="path391" />
      <path
         d="m 245.577,1285.62 h 0.865 c -0.415,0.51 -0.264,0.66 0.577,0.58 -0.249,0.5 -1.073,1 0.288,0.86 -0.386,1.95 0.403,3.26 0.577,5.48 -0.453,-0.12 -0.246,-0.91 -1.153,-0.58 0.404,-0.76 -0.337,-2.42 -1.154,-2.88 0.932,-0.95 0.373,-2.3 0,-3.46 z"
         id="path393" />
      <path
         d="m 214.432,1288.21 c 1.037,0.21 1.61,3.66 0.577,4.04 0.689,-1.24 -1.176,-2.94 -0.577,-4.04 z"
         id="path395" />
      <path
         d="m 253.653,1290.52 c 0.734,-0.24 2.199,1.25 2.306,2.6 -1.934,0.3 -1.449,-1.82 -2.306,-2.6 z"
         id="path397" />
      <path
         d="m 247.307,1292.83 c 1.034,0.79 1.901,1.75 2.018,3.46 -0.256,-0.18 -0.514,-0.35 -0.575,0 0.115,-1.14 -1.196,-1.89 -1.443,-3.46 z"
         id="path399" />
      <path
         d="m 348.24,1296 c -1.092,0.07 -0.836,1.47 -2.307,1.16 -0.243,-0.34 -0.38,-0.78 -0.289,-1.45 -0.798,0.06 -3.752,-1.38 -4.615,0.29 -0.872,0.01 -0.278,-1.45 -1.151,-1.44 0.117,-0.72 1.117,-0.02 0.863,0.58 2.051,-0.16 2.676,-1.75 4.903,-1.73 0,0.76 0.913,0.62 0.866,1.44 1.456,0.18 2.5,-1.18 3.748,-0.29 -0.713,1.3 -1.166,2.87 -3.17,2.88 0.194,-0.67 0.957,-0.77 1.152,-1.44 z"
         id="path401" />
      <path
         d="m 351.989,1299.46 c -0.311,0.65 -1.082,0.84 -1.443,1.44 -0.645,-0.63 0.479,-2.26 1.443,-1.44 z"
         id="path403" />
      <path
         d="m 316.23,1300.04 c 0.783,-0.21 -0.205,1.36 0.577,1.15 -1.709,-0.25 -1.409,1.53 -0.865,3.18 -0.577,0 -1.154,0 -1.732,0 -1.387,-1.94 0.348,-3.77 2.02,-4.33 z"
         id="path405" />
      <path
         d="m 327.767,1304.37 c 0.917,0.45 -0.362,1.72 -0.867,0.86 -0.089,-0.66 0.833,-0.32 0.867,-0.86 z"
         id="path407" />
      <path
         d="m 353.72,1304.94 c 0.572,0.2 0.659,0.88 1.154,1.15 -0.064,1.87 -3.271,0.58 -3.174,2.6 -0.37,-1.11 -1.389,-0.93 -0.865,-2.31 1.381,-0.06 2.297,-0.58 2.885,-1.44 z"
         id="path409" />
      <path
         d="m 353.143,1322.24 c -0.224,0.26 -0.311,0.66 -0.29,1.16 -0.337,0.71 -1.196,-0.7 -1.153,0.57 -1.706,-0.22 -1.807,-0.13 -2.883,0.58 0,-0.48 0,-0.96 0,-1.44 1.787,0.48 2.939,-1.81 4.326,-0.87 z"
         id="path411" />
      <path
         d="m 348.817,1324.84 c 0.868,-0.29 0.511,0.64 0.578,1.15 -0.29,0 -0.578,0 -0.867,0 -0.122,-0.6 0.198,-0.76 0.289,-1.15 z"
         id="path413" />
      <path
         d="m 335.839,1325.71 h 1.155 v 1.15 c -0.669,0.09 -1.108,-0.05 -1.441,-0.29 0.153,-0.23 0.3,-0.47 0.286,-0.86 z"
         id="path415" />
      <path
         d="m 350.546,1327.15 c -0.595,-0.18 -1.894,0.35 -2.018,-0.29 -0.46,-0.78 2.195,-0.49 2.018,0.29 z"
         id="path417" />
      <path
         d="m 262.303,1339.55 c -0.282,0.68 -0.094,1.82 -1.153,1.73 -0.46,-0.93 0.036,-1.64 1.153,-1.73 z"
         id="path419" />
      <path
         d="m 261.15,1341.85 c 1.348,0.95 0.097,3.56 -0.288,4.62 -1.279,-0.87 0.293,-3.17 0.288,-4.62 z"
         id="path421" />
      <path
         d="m 273.838,1346.47 c 0.638,1.15 0.439,2.14 0,3.17 -0.86,-0.09 -0.21,-2.38 0,-3.17 z"
         id="path423" />
      <path
         d="m 272.108,1349.35 c 1.284,-0.04 0.172,1.17 0,1.44 -0.845,-0.24 0.172,-0.92 0,-1.44 z"
         id="path425" />
      <path
         d="m 269.224,1358.87 c 0.614,1.19 0.218,2.72 -1.152,3.75 0.18,-1.45 0.57,-2.7 1.152,-3.75 z"
         id="path427" />
      <path
         d="m 241.251,1382.23 c 0.184,-1.05 1.348,0.67 1.442,-0.29 0.709,0.27 -0.372,1.13 -0.864,1.15 0.012,-0.49 -0.216,-0.74 -0.578,-0.86 z"
         id="path429" />
      <path
         d="m 223.66,1385.69 c 0.788,0.7 0.443,2.47 -0.577,1.73 0.009,-0.28 0.353,-0.22 0.577,-0.29 -0.202,-0.89 -0.202,-0.55 0,-1.44 z"
         id="path431" />
      <path
         d="m 264.033,1392.61 c 1.783,-0.33 -0.413,3.3 1.154,4.61 -1.289,2.57 0.876,5.72 -1.154,7.79 -0.11,-6.31 -0.832,-12.16 -0.575,-19.32 1.692,1.31 1.614,5.45 0.575,6.92 z"
         id="path433" />
      <path
         d="m 294.889,1409.05 c 1.108,0.1 1.741,0.68 1.154,1.73 -0.544,-0.42 -1.278,-0.65 -1.154,-1.73 z"
         id="path435" />
      <path
         d="m 273.549,1411.64 c 0.729,0.38 1.518,1.73 1.155,2.31 -0.815,-0.3 -1.704,-1.55 -1.155,-2.31 z"
         id="path437" />
      <path
         d="m 280.758,1414.82 c 1.66,0.81 1.545,2.98 2.022,4.03 -0.709,-0.35 -0.773,-1.34 -1.733,-1.44 0.518,-1.39 -0.406,-1.04 -0.289,-2.59 z"
         id="path439" />
      <path
         d="m 273.549,1416.26 c 0.699,0.16 0.642,1.08 0.866,1.73 -0.232,-0.16 -0.467,-0.31 -0.866,-0.29 0,-0.48 0,-0.96 0,-1.44 z"
         id="path441" />
      <path
         d="m 209.529,1278.99 c -0.913,4.83 0.12,8.87 0.577,13.26 -2.377,0.56 0.081,4.02 -2.017,3.46 -0.042,0.81 0.706,0.84 1.44,0.87 v 3.17 c -0.492,-0.78 -2.524,-1.16 -2.017,-2.02 -0.26,0.13 -0.517,0.25 -0.577,0.58 -5.244,-3.12 -10.729,-6 -14.42,-10.67 -0.631,-0.43 -1.495,-0.62 -1.441,-1.73 -3.682,-3.62 -3.886,-7.24 -6.635,-11.54 -0.587,-3.88 -1.501,-9.44 -2.307,-14.99 -0.781,-5.41 -1.57,-10.03 -4.902,-13.27 0.166,-6.13 -1.526,-8.98 -4.903,-10.09 -2.917,-5.35 -4.475,-15.87 -6.343,-23.36 -0.448,-0.61 -0.517,-1.6 -1.441,-1.73 0.758,-3.71 -0.531,-6.37 0,-9.8 -2.901,-7.35 0.652,-20.17 -1.443,-27.69 2.398,-2.87 5.064,-6.18 8.652,-6.92 1.955,-0.41 4.788,0.04 6.633,0.29 2.771,0.37 5.017,1.83 8.075,2.3 4.22,0.66 7.542,1.78 10.668,3.46 1.057,1.54 2.787,1.53 4.326,2.6 0.847,0.59 1.427,2 2.307,2.59 2.267,1.53 7.029,3 10.094,3.47 1.112,0.16 1.392,1.24 2.595,1.73 1.753,0.71 3.774,0.4 5.48,0.86 1.343,0.37 2.473,1.45 3.748,1.73 0.442,0.1 1.021,-0.15 1.444,0 4.514,1.62 6.604,6.3 11.534,7.5 1.009,1.45 2.436,2.79 4.614,3.75 -2.237,-2.37 -2.215,-6.32 -2.885,-8.94 1.869,-3.9 0.77,-10.67 2.308,-16.73 0.819,-3.23 3.344,-8.41 5.768,-8.94 5.447,-1.18 5.149,10.26 11.823,8.65 5.696,3.52 13.73,6.2 21.629,8.37 0.99,2.59 5.257,3.12 6.632,6.34 2.665,0.04 3.922,2.48 6.921,2.02 5.969,2.26 13.497,4.52 16.438,10.67 1.187,1.13 2.787,3.36 4.038,3.46 -0.118,3.33 5.011,7.57 6.056,10.67 0.562,0.59 1.359,0.95 2.018,1.44 -0.619,0.83 0.555,1.8 1.443,2.02 0.467,3.58 5.182,5.58 6.054,8.94 0.047,0.18 -0.448,0.51 -0.288,0.87 0.477,1.06 1.576,1.85 2.021,2.88 0.718,1.67 0.312,4.84 2.307,5.48 -0.355,4.83 4.895,7.93 4.902,12.4 1.818,-0.32 0.087,1.36 2.019,1.73 -0.289,0.39 -0.476,0.87 -0.868,1.16 2.813,2.13 1.874,6.03 4.038,8.64 0.631,2.69 2.268,5.23 2.596,8.37 0.312,2.98 0.163,5.68 0.865,7.78 0.557,1.18 2.233,1.23 2.884,2.31 0.557,-0.03 -0.447,-1.07 0.289,-1.44 3.474,-0.62 4.439,3.59 6.633,5.19 0.357,-0.74 0.108,-1.59 -0.289,-2.31 0.256,-0.13 0.517,-0.25 0.577,-0.57 1.204,0.72 2.127,1.71 2.019,3.74 3.426,0.35 3.189,-1.98 6.343,-2.3 0.369,1.42 -0.725,1.39 -1.441,1.73 0.282,0.69 1.05,2.39 1.731,1.73 1.039,1.97 1.544,4.52 0.288,6.63 -0.578,0 -1.155,0 -1.731,0 0.386,-1.62 -0.037,-0.74 -0.865,-1.15 1.187,-2.22 -1.211,-3.08 -3.173,-3.75 -0.723,0.76 0.725,0.97 0.866,1.73 -0.185,0.87 -0.451,1.67 -1.441,1.73 -1.382,-1.44 -2.581,-2.8 -3.173,-4.32 -1.985,1.27 -3.625,-1.4 -4.325,-3.18 -2.063,-0.05 -4.757,1.05 -4.902,-1.44 -0.27,0.21 -0.437,0.52 -0.578,0.87 0.521,0.44 0.882,1.04 2.018,0.86 -0.177,0.98 -0.079,2.23 -1.44,2.02 -0.331,-0.74 -2.253,-1.06 -3.174,-2.02 -0.175,0.95 1.42,2.35 2.596,2.89 -0.401,0.36 -0.176,1.36 -0.577,1.73 -1.505,-1.39 -3.667,-2.11 -4.903,-3.76 -0.554,0.54 -0.227,0.53 -1.152,0.29 -0.057,0.46 0.046,2.2 -0.867,2.6 -1.116,-1.45 -3.171,-0.56 -4.035,0.58 -1.098,-0.39 -1.601,-0.72 -2.886,-0.29 0.945,1.31 -1.072,2.28 -1.151,3.75 -3.703,-0.68 -6.598,-1.78 -10.383,-0.29 -0.708,4.46 0.803,5.76 2.019,2.02 0.716,0.63 3.027,-0.34 2.885,1.15 -1.776,-0.48 -1.555,1.61 -2.597,0.29 -0.427,0.24 -0.619,0.72 -0.577,1.44 1.324,1 4.054,-0.17 5.768,0.87 -1.199,1.46 -3.281,-0.39 -4.039,1.15 -2.438,-1.82 -6.604,0.27 -9.226,0.86 -0.369,1.63 1.334,1.36 0.577,2.6 -0.766,0.82 -1.642,-0.97 -1.731,0.29 -0.704,-0.95 -1.317,-0.21 -1.154,-2.02 -0.782,0.42 -0.211,2.03 -1.441,2.6 -1.039,0.17 -0.849,-0.89 -1.731,-0.87 0.48,-3.75 -3.294,-3.24 -4.326,-5.48 -0.604,0.17 -0.822,0.72 -1.73,0.58 -0.423,-1.79 -1.894,-2.53 -3.172,-3.46 -0.821,0.65 -0.871,0.41 -1.731,1.15 -0.448,-1.09 -0.239,-2.84 -0.866,-3.75 -1.919,0.18 -2.981,-3.13 -6.054,-3.46 0.812,-1.21 -2.18,-2 -3.173,-2.88 -3.389,-3.03 -6.641,-7.26 -9.806,-10.1 -0.886,0.21 -0.553,0.21 -1.441,0 -0.669,-2.31 -1.86,-4.09 -3.748,-5.19 0.113,0.72 -0.297,2.3 -1.731,2.31 0.166,-1.03 -0.989,-0.95 -1.152,-2.31 h 0.863 c -0.574,-2.99 -3.091,-5.22 -5.766,-5.19 -1.17,-3.83 -5.386,-5.88 -7.787,-8.94 -1.227,-1.56 -2.869,-3.49 -4.326,-5.19 -1.378,-1.6 -4.057,-3.93 -5.48,-6.34 -1.465,-0.15 -3.661,-0.85 -3.459,-1.73 -2.804,0.01 -4.419,-2.24 -7.209,-3.46 -2.105,-0.12 -3.14,0.57 -4.039,-0.87 -3.13,0.5 -5.125,-1.62 -7.786,-1.15 -0.355,-0.13 -0.592,-0.37 -0.575,-0.87 -0.988,0.23 -2.531,0.73 -3.751,0 0.528,2.92 2.474,5.97 3.173,10.1 0.089,0.39 0.722,0.24 1.153,0.28 -0.294,0.38 -0.282,1.07 -0.575,1.45 -2.371,-1.99 -3.526,-6.08 -4.328,-9.23 -0.932,-0.36 -0.218,0.93 -1.153,0.58 0.507,-0.75 0.416,-2.09 1.153,-2.6 -1.246,-0.85 -3.059,-1.06 -3.748,-1.73 -1.953,1.34 1.183,2.79 0.289,4.04 0.047,0.33 0.526,0.24 0.865,0.29 -0.504,3.76 2.033,7.78 2.308,11.53 -3.384,-3.52 -3.14,-10.79 -5.77,-15.28 -0.295,0.28 -0.583,0.57 -0.865,0.86 -0.87,-0.61 0.826,-1.07 0.865,-1.73 -1.952,-0.62 -3.587,-0.63 -6.054,-1.15 -0.597,0.15 -0.07,1.36 -0.866,0.57 2.527,4.45 2.202,10.09 5.48,13.85 -0.247,0.62 -0.712,1.02 -1.732,0.86 -0.495,-1.71 -1.633,-5.02 -2.882,-6.92 -0.449,-3.23 -1.063,-5.7 -2.595,-7.21 -0.212,-0.79 0.572,-0.58 0.575,-1.15 -0.906,-1.84 -3.607,-0.29 -3.46,-2.89 4.138,2.39 12.032,1.78 16.726,4.91 1.901,-0.71 5.52,-0.06 7.21,1.15 0.426,-0.13 -0.115,-0.37 0,-0.87 4.933,1.42 11.041,2.22 16.148,4.62 -1.278,-1.32 -2.133,-3.06 -4.037,-3.75 0.039,-0.86 0.914,-1.65 1.73,-0.87 -0.262,-1.37 -1.719,-1.54 -2.018,-2.88 -0.718,1 -2.544,0.45 -2.884,-0.58 -0.134,-1.18 0.726,0.23 1.154,-0.57 -0.279,-0.89 -0.725,-1.42 -1.731,-0.87 -1.843,-4.98 -7.283,-6.37 -10.38,-10.09 -0.411,-0.03 -0.817,-0.05 -0.867,0.29 -2.6,-2.69 -6.153,-4.42 -9.227,-6.64 1.41,1.96 2.356,4.38 3.747,6.35 -2.989,0.56 -2.55,-4.73 -4.902,-5.77 0.127,-0.35 0.369,-0.59 0.865,-0.58 -1.863,-1.9 -5.174,-3.77 -7.786,-5.76 -0.345,2.99 1.446,8.17 4.325,10.96 -3.363,0.78 -4.154,-4.43 -5.477,-7.79 -0.548,-1.38 -1.343,-2.39 -1.733,-3.46 -0.087,-0.76 0.604,-0.75 1.156,-0.87 -1.108,-1.58 -3.552,-1.83 -4.326,-3.75 -1.349,2.73 3.025,7.72 2.596,10.39 1.571,1.54 1.471,4.38 3.171,6.34 -0.723,-0.17 -0.965,-0.23 -2.019,-0.58 -0.704,-3.1 -3.53,-7.48 -4.614,-11.24 -0.886,-0.21 -0.554,-0.21 -1.441,0 0.085,-0.59 0.577,-0.77 0.864,-1.16 -1.477,-2.09 -0.059,-3.95 -0.575,-5.48 2.579,0.31 2.87,2.9 5.477,3.18 4.225,5.29 11.842,7.19 16.152,12.4 1.208,-1.17 2.116,1.03 3.17,1.73 -0.429,-3.55 -1.948,-9.22 -2.018,-13.56 0.958,1.64 2.149,4.25 1.729,6.35 0.073,0.36 0.576,0.29 0.577,0 0.532,2.87 1.031,6.39 2.019,8.94 1.171,-2.28 -1.42,-5.61 -0.863,-9.23 0.516,-0.04 0.607,0.35 1.152,0.29 -0.535,1.19 0.068,2.75 1.154,3.17 -0.047,0.34 -0.526,0.24 -0.866,0.29 1.646,2.05 0.477,6.29 2.884,6.34 -0.317,1.28 0.489,1.44 0.577,2.31 1.196,0.08 1.123,-0.38 2.019,0 -1.818,-3 -1.643,-6.51 -2.019,-10.38 1.414,2.52 2.069,6.05 2.597,8.65 0.913,0.78 0.243,2.02 1.44,2.02 0.042,0.71 -0.149,1.2 -0.577,1.44 0.915,1.1 2.084,1.95 3.173,2.88 0.066,-3.14 -1.588,-8.48 -0.288,-12.4 0.081,4.71 2.06,8.29 1.729,13.56 2.019,1.34 2.767,3.96 4.902,5.19 0.25,-4.73 -0.916,-10.78 -1.151,-14.42 3.092,5.05 1.013,14.88 5.191,19.61 0.417,-0.23 -0.364,-2.59 0.863,-1.73 0.059,-4.25 -0.93,-8.38 -0.289,-13.27 1.606,2.16 0.177,6.43 1.732,9.23 0.247,0.92 -0.454,0.89 -0.577,1.44 1.117,2.86 1.063,5.36 1.153,8.08 1.012,0.62 1.67,1.59 2.02,2.88 0.758,0.09 0.945,-0.4 0.864,-1.15 0.657,0.59 1.11,1.6 2.019,2.59 0.415,-0.06 0.1,-0.86 0.577,-0.86 -2.025,-5.19 -1.762,-10.28 -2.019,-16.15 1.658,1.92 1.473,7.15 1.73,9.52 1.586,2.31 0.499,4.5 1.155,7.49 0.161,0.65 0.448,-0.35 0.863,0.29 -0.563,0.54 -0.09,1.06 0,1.73 -0.233,0.25 -0.789,0.17 -0.863,0.58 0.504,1.99 2.067,2.93 3.458,4.04 1.041,-1.82 -1.738,-2.3 -1.729,-4.04 1.084,0.16 1.223,1.28 2.019,1.73 -0.336,-3.06 -1.599,-10.48 -1.731,-14.13 0.885,-0.68 0.902,1.97 0.866,3.17 1.216,3.23 2.224,7.25 2.019,10.38 0.046,0.34 0.525,0.25 0.864,0.29 0.154,1.11 -0.515,1.41 -0.289,2.6 -0.782,0.35 -0.717,1.11 -1.729,0.57 1.379,2.18 2.367,2.21 3.461,4.33 0.355,-0.13 0.591,-0.37 0.574,-0.87 0.597,0.08 0.072,1.28 0.868,1.16 0.849,-3.78 -1.364,-6.85 -0.289,-9.52 -1.232,-1.79 -1.879,-5.56 -0.865,-6.63 -1.291,-2.55 -1.549,-5.23 -0.866,-8.08 1.802,4.23 1.08,10.32 3.174,14.13 -1.053,2.45 1.306,4.03 0,5.77 1.776,2.52 0.199,7.88 4.036,9.23 -0.086,-4.26 -0.965,-9.23 -2.018,-14.42 1.165,-1.28 -1.791,-7.69 0.577,-8.65 0.502,0.69 0.069,1.8 0.286,3.46 0.198,1.49 1.285,3.37 0.577,4.9 1.489,2.5 0.82,6.66 1.731,10.38 0.126,0.51 0.812,0.79 0.865,1.16 0.171,1.13 -0.364,2.23 0,3.46 0.469,1.58 1.286,2.81 2.885,3.75 0.623,0.04 0.131,-1.03 0.289,-1.45 0.919,-0.24 0.891,0.46 1.44,0.58 -1.148,-7.58 -2.708,-11.97 -2.307,-18.46 1.509,0.42 0.08,3.73 1.73,4.62 -0.148,1.26 -0.089,0.95 -0.286,2.02 2.287,3.6 0.375,10.32 4.036,12.4 0.057,1.11 0.01,2.12 -0.289,2.88 -0.788,-0.26 0.512,-1.01 -0.289,-1.44 -0.825,0.39 -0.255,2.47 0,3.46 0.489,-0.12 1.515,-0.29 2.019,0.87 -0.235,-6.31 -2.772,-13.62 -1.73,-21.05 1.089,0.3 0.845,1.3 0.289,2.01 1.374,3.1 1.402,9.92 2.884,12.98 0.081,0.66 -0.07,1.08 -0.577,1.15 1.432,1.65 1.356,5.11 0.866,7.21 0.446,2.36 2.541,1.29 2.882,3.75 1.138,0.2 -0.265,-1.21 1.155,-1.15 0.37,0.68 -0.038,0.53 0.288,1.44 0.096,-5.19 -2.462,-14.77 -2.306,-19.61 1.766,1.83 2.142,4.88 2.018,8.08 0.067,0.5 0.495,0.65 1.151,0.57 -0.7,3.04 1.78,4.64 0.867,7.79 0.26,0.79 0.646,-0.88 1.154,0 -0.192,1.2 -0.5,3.26 -0.289,4.61 -0.588,-0.58 -0.564,0.13 -1.154,0.29 0.882,1.14 2.398,1.64 3.462,2.59 -0.241,-6.02 -2.802,-15.67 -2.596,-21.62 0.038,-1.1 -0.328,-3.08 1.442,-3.17 -0.022,4.11 0.781,8.29 1.443,12.4 0.635,3.96 1.266,8.44 2.017,12.39 -0.289,0.39 -0.272,1.08 -0.866,1.16 1.129,1.56 2.706,2.68 4.326,3.75 0.411,-7.5 -2.825,-16.18 -1.152,-24.23 0.516,0.04 0.608,-0.35 1.152,-0.28 -0.887,7.44 2.251,17.02 2.019,24.51 0.628,1.29 0.816,3.03 2.595,3.17 0.7,-0.26 -0.653,-0.85 -0.286,-1.73 1.129,0.21 0.919,1.77 2.017,2.02 -1.48,-6.47 -2.057,-14.64 -1.154,-22.5 0.894,0.07 0.902,1.03 1.154,1.74 -0.046,-0.01 -0.577,0.01 -0.577,0 0.507,7.88 2.53,16.11 2.019,23.07 0.914,-0.13 2.026,1.21 2.595,2.3 0.908,-0.05 0.369,-1.55 1.442,-1.44 -0.315,1.28 0.488,1.44 0.577,2.31 0.449,-1.04 0.143,-3.79 -1.442,-3.75 0.282,-0.81 0.771,0.42 1.153,-0.29 -0.24,-2.56 -0.068,-3.67 -0.864,-5.48 -0.644,0.13 -1.029,0.51 -1.154,1.15 -0.295,-0.57 -0.127,-1.32 -0.289,-2.59 1.431,-0.12 0.165,0.86 0.866,1.15 1.358,-4.21 -1.69,-12.96 2.019,-17.01 -1.115,5.71 -0.308,14.43 1.729,20.76 -0.765,-0.36 -0.824,2.34 0.289,2.6 -0.545,1.13 -0.854,3.79 0.288,4.32 0.972,-2.57 0.132,-7.11 -1.151,-8.65 -0.111,-0.88 1.045,-0.49 1.151,-1.15 -0.943,-4.22 -0.65,-8.25 0.577,-11.83 0.362,4.85 1.179,12.6 2.02,19.04 2.259,-0.09 2.308,-2.27 2.017,-4.33 2.183,-3.72 -0.07,-6.93 0.578,-11.24 0.668,0.67 0.955,1.73 1.73,2.3 -0.767,2.64 0.143,4.1 0.865,6.06 2.033,-0.14 2.922,-0.63 4.327,-0.58 -0.449,-1.32 -3.252,-0.89 -4.038,-2.59 1.337,-2.09 3.94,-0.93 6.055,-0.87 -2.062,-3.42 -4.499,-6.46 -5.767,-10.67 -0.335,-0.24 -0.774,-0.38 -1.442,-0.29 0.138,-3.71 -4.72,-3.9 -4.614,-6.63 -0.386,0 -0.77,0 -1.154,0 -5.051,-6.77 -13.836,-9.81 -17.591,-17.88 -1.051,0.57 -1.33,-0.58 -2.596,-0.58 0.261,-0.51 0.647,-0.89 1.156,-1.15 -1.142,-1.46 -1.895,-3.3 -3.751,-4.04 0.197,-2.91 -1.952,-3.6 -4.037,-3.46 -0.168,-0.93 0.194,-1.34 0.289,-2.02 -1.267,-1.2 -2.37,-1.8 -4.328,-1.73 -2.382,-3 -7.514,-3.25 -8.651,-7.5 -0.107,-0.94 -1.532,-0.58 -1.44,-1.73 -0.482,0 -0.962,0 -1.443,0 -0.911,-3.22 -4.783,-3.48 -5.478,-6.92 -1.285,1.08 -2.375,-2.47 -3.75,-3.17 -1.286,0.34 -2.361,0.78 -3.748,0.29 0,-0.77 0,-1.54 0,-2.31 -4.569,-2.64 -9.709,-4.71 -12.401,-9.22 -3.356,-1.84 -6.345,-4.04 -8.939,-6.64 -4.956,-1.26 -9.177,-7.94 -14.133,-9.23 -0.83,-0.21 -2.342,-0.19 -3.171,-1.44 -0.314,0.07 -0.197,0.57 -0.577,0.58 -4.357,-0.74 -7.758,-2.43 -11.246,-4.04 -0.816,-0.24 -0.748,0.41 -1.443,0.29 -6.656,-3.34 -12.056,-7.94 -18.744,-11.25 -7.299,-0.33 -11.748,-2.59 -18.744,-2.59 -1.01,0.61 -1.373,1.76 -2.884,1.15 -0.808,0.28 0.417,0.77 -0.289,1.15 -1.559,-0.11 -1.228,1.66 -2.596,1.73 1.582,5.81 -0.612,13 0,20.19 0.136,1.6 1.019,3.64 0.866,4.9 -0.183,1.5 -0.577,0.3 0,2.02 0.845,2.53 -0.235,6.16 0.577,8.65 1.002,-0.72 0.566,-2.89 2.307,-2.88 0.209,-0.65 -0.521,-2.25 0.575,-2.02 -0.514,0.99 0.721,3.29 -1.152,3.46 1.075,1.94 0.474,2.17 0,4.04 -0.787,0.03 -0.582,-0.48 -1.155,0 0.294,1.99 0.059,2.78 0.867,4.33 2.067,-0.76 1.41,-5.66 4.036,-4.91 -2.192,2.61 -2.676,6.56 -2.596,10.38 1.622,-2.66 3.535,-3.25 4.617,-6.34 0.837,2.96 -2.831,6.13 -4.04,8.94 0.686,1.06 0.979,4.89 0.29,5.48 0.069,0.31 0.571,0.19 0.577,0.58 0.983,-1.29 1.102,-1.68 1.44,-3.47 0.768,0.8 0.738,-0.23 1.156,-0.57 1.376,-0.23 0.504,1.8 1.44,2.02 -0.356,1.08 -1.816,1.61 -1.152,2.88 -1.118,-0.25 -1.028,0.71 -1.732,0.87 -0.012,0.55 1.525,1.77 0.288,1.72 2.786,2.22 5.391,4.61 6.633,8.37 -1.017,4.52 2.95,7.38 4.328,11.24 -0.179,1.41 -0.179,1.49 0,2.89 1.042,-0.88 1.217,-2.63 2.017,-3.75 0.996,2.73 -2.616,6.74 -1.443,10.67 0.185,-0.6 1.683,-1.37 0.866,-2.02 2.096,-2.32 1.976,-5.57 4.325,-7.21 -0.903,4.1 -3.165,6.83 -3.459,11.54 -0.232,0.25 -0.791,0.17 -0.866,0.58 0.301,2.98 1.46,4.9 1.441,7.49 1.87,-4.67 2.214,-10.86 5.192,-14.42 -1.282,5.45 -2.244,11.22 -4.615,15.58 -0.399,1.3 1.122,1.44 0.289,2.3 0.09,0.39 0.723,0.24 1.155,0.29 -0.256,0.52 -0.805,0.74 -0.578,1.73 1.747,-0.18 2.078,-2.56 2.596,-4.04 0.582,-1.65 0.899,-3.58 1.73,-4.9 0.309,1.43 0.709,4.44 0.288,6.35 -0.103,0.46 -1.152,1.04 -1.44,1.73 -0.782,1.84 -0.052,3.5 -1.444,3.17 0.604,-0.07 1.307,1.91 1.444,2.31 2.304,-1.74 1.654,-5.02 4.036,-6.92 0.232,2.73 -1.246,6.24 -2.596,8.36 -0.133,1.67 0.718,2.36 2.019,2.59 0.336,-0.12 -0.456,-1.88 1.154,-1.44 0.047,0.89 -0.682,1.63 0,2.31 2.706,-1.21 2.901,-5.37 3.748,-6.92 1.193,0.91 -0.131,2.87 1.155,4.61 -1.415,0.89 -2.169,2.45 -3.462,3.46 0.214,0.76 1.404,2.04 2.019,1.44 -0.169,1.18 1.828,2.04 3.172,2.6 0.779,-0.95 1.102,-2.36 1.73,-3.46 -0.042,-0.53 -0.976,-0.18 -1.152,-0.58 0.002,-0.57 0.786,-0.36 0.575,-1.15 1.161,-0.2 0.709,1.21 1.732,1.15 -1.138,1.66 -0.995,4.47 0.288,6.35 0.679,-0.43 0.535,-0.61 1.442,-0.29 -0.983,-0.49 -0.313,-1.02 0.289,-1.44 -0.468,-0.53 -0.913,0.2 -1.445,-0.58 -0.219,-1.12 1.843,-1.75 1.733,-0.29 2.713,-2.11 0.432,-5.02 0.289,-7.21 -0.059,-0.86 0.527,-1.87 0.575,-2.59 0.072,-1.09 -0.451,-2.93 0.865,-3.75 z m 36.913,-90.27 c 0.013,-0.36 1.233,0.47 1.154,1.16 -1.921,0.94 0.378,2.55 -1.731,3.17 0.616,1.1 -0.016,1.9 -0.288,2.88 0.68,0.38 0.284,1.83 1.442,1.73 0.9,-3.08 2.21,-7.88 4.326,-10.67 0.123,0.55 0.621,0.73 0.576,1.45 -0.926,-0.26 -0.596,0.74 -1.153,0.86 0.535,4.61 -3.077,7.6 -2.307,11.54 1.139,0.11 1.268,1.23 2.019,1.73 0.842,-3.77 2.461,-8.11 4.902,-10.67 0.33,0.34 0.327,1.02 0.288,1.73 -0.501,-0.02 -0.896,0.06 -1.154,0.29 0.978,1.97 -1.739,3.31 -0.863,5.19 -1.268,1.11 -1.818,3.64 -2.022,5.19 1.54,0.61 1.725,-0.71 2.885,0.28 -0.745,-2.5 2.034,-3.64 1.732,-6.63 0.173,-0.16 1.366,-0.67 1.442,0 -0.072,1.53 -1.754,3.63 -1.155,5.77 -1.361,-0.31 -0.825,0.99 -0.287,1.15 -0.997,0.12 -1.161,1.9 -0.289,2.31 1.327,-0.18 3.162,-0.93 2.882,-3.46 0.432,-0.05 1.065,0.1 1.155,-0.29 -0.854,-0.07 -0.396,-1.07 0,-1.44 0.296,0.28 0.585,0.57 0.866,0.87 -0.852,1.01 -0.149,1.22 0,2.3 -0.894,0 -0.758,0.44 -1.732,0.87 0.523,1.03 -0.042,2.1 -0.863,2.59 1.782,1.01 3.712,1.86 5.766,2.6 0.338,-0.43 0.359,-1.18 0.865,-1.44 0.353,0.41 1.152,0.38 1.152,1.15 -0.795,0.07 -0.877,0.85 -1.152,1.44 6.673,5.41 10.584,10.88 17.303,16.15 1.44,-1.08 0.602,-5.54 3.171,-3.75 -2.163,1.15 -1.034,3.21 -1.729,4.9 1.04,0.6 1.732,1.54 3.462,1.45 0.391,-0.96 0.164,-2.53 1.44,-2.6 -0.601,-0.71 -0.246,-2.92 1.155,-2.6 -0.981,3.13 -2.865,7.82 1.729,7.21 -0.248,-0.72 -0.378,-1.54 0.866,-1.44 0.209,-0.88 -0.497,-0.85 -0.289,-1.73 0.434,0.05 1.064,-0.1 1.154,0.29 -0.196,0.96 -0.263,2.04 -1.154,2.31 0.55,2.26 1.271,4.01 3.171,5.48 1.005,-2.17 1.054,-5.29 2.596,-6.92 0.937,1.21 -0.713,1.84 -0.864,2.88 1.54,0.62 -1.694,2.95 0.29,4.04 -0.416,0.45 -1.505,0.22 -1.445,1.15 1.799,-0.07 0.185,3.28 2.308,2.88 0.474,-3.12 1.502,-6.09 2.884,-7.49 -0.003,0.29 0.232,0.34 0.288,0.57 -0.26,1.04 -0.593,3.25 -1.154,5.77 0.498,0.12 0.739,-0.43 0.866,0 -1.145,1.11 -2.131,4.48 0,4.9 0.237,-0.81 -0.406,-0.74 -0.289,-1.44 0.341,-0.33 1.019,-0.33 1.731,-0.29 -0.369,0.38 -0.369,1.07 0,1.44 -0.384,0 -0.768,0 -1.154,0 0.034,0.74 0.529,1.01 0.865,1.45 2.07,-1.33 0.232,-5.1 2.595,-5.77 -0.009,1.58 -0.328,2.43 0.577,4.32 -1.379,0.64 -1.146,2.9 -2.306,3.76 0.579,0.57 0.943,1.36 1.729,1.72 0.436,-2.69 1.459,-5.86 3.462,-7.78 -0.42,1.21 -0.226,3.04 -1.155,3.75 -0.086,0.9 0.833,-0.74 0.866,0.28 -0.117,0.37 -0.371,0.6 -0.866,0.58 1.149,1.48 -0.655,2.82 -0.287,5.19 1.468,1.71 3.896,2.45 5.478,4.04 1.19,-4.14 1.939,-9.12 3.461,-12.11 h 0.865 c -0.956,2.91 -0.35,4.38 -1.442,7.49 1.078,-0.18 1.652,-0.45 2.02,0.58 -0.334,0.24 -0.774,0.38 -1.443,0.29 -0.465,1.13 0.498,2.32 0.865,3.46 1.441,-2.77 1.517,-8.11 2.883,-10.67 -1.286,0.04 0.258,-0.74 0,-1.44 -6.353,-8.74 -14.292,-15.89 -18.744,-26.53 -0.723,0.05 -0.903,-0.44 -1.152,-0.87 0.09,-0.39 0.409,-0.55 0.286,-1.15 -3.191,-2.44 -4.029,-8.25 -6.631,-10.38 2.092,0.69 2.823,2.75 3.46,4.9 3.629,4.54 5.814,10.53 9.805,14.71 -0.09,0.39 -0.409,0.55 -0.288,1.15 1.355,1.09 3.253,3.04 3.171,4.62 4.419,3.07 6.228,8.76 10.96,11.53 0.171,-0.6 -0.357,-1.89 0.288,-2.02 1.009,2.77 -0.005,5.01 2.596,7.21 0.937,-0.6 0.967,-2.11 0.864,-3.75 0.369,-0.05 1.412,-0.83 1.443,-0.28 -1.22,1.83 -0.9,6.29 -0.577,8.36 1.064,-0.98 0.492,0.99 0.865,1.15 0.585,-1.42 0.395,0.55 1.153,0.58 0.46,-0.22 -0.066,-1.41 0.867,-1.16 0.002,0.38 0.504,0.27 0.577,0.58 -2.064,1.29 0.508,5.06 1.44,5.19 -0.123,0.92 -0.411,1.39 -0.289,2.02 1.129,0.46 0.597,-0.75 1.154,-0.86 0.227,0.75 0.621,3.65 2.308,2.88 0.688,-3.53 1.679,-7.24 3.459,-10.38 -0.797,4.71 -1.606,8.76 -2.884,12.98 0.641,0.41 0.653,1.46 2.021,1.15 0.341,-2.45 1.408,-4.17 2.307,-6.06 -0.232,2.68 -0.952,5.37 -2.021,8.08 0.603,0.96 1.084,-1.12 1.444,-0.29 -0.31,1.13 -0.641,3.59 0.864,4.61 1.581,-4.05 2.32,-7.21 2.882,-11.24 0.675,0.24 1.244,-1.01 1.445,-0.29 -1.204,2.23 -0.159,3.98 -1.445,6.63 0.006,0.38 0.508,0.26 0.577,0.58 -1.181,1.19 -0.475,3.59 -1.44,5.48 0.866,0.19 1.007,1.11 2.308,0.86 0.985,-4.3 1.83,-8.94 2.018,-13.26 -3.539,-5.32 -4.741,-12.43 -8.076,-18.46 0.104,-0.99 -0.525,-2.72 -1.152,-2.02 0.887,0.36 -0.322,0.87 -0.578,0.29 -0.215,0.98 1.171,0.37 0.867,1.44 -1.472,-0.32 -0.261,2.05 -1.733,1.73 0.878,-3.5 1.343,-7.95 -1.151,-10.38 -1.49,3.11 -2.123,5.42 -1.444,8.07 -0.494,-0.37 -1.133,-0.59 -1.153,-1.44 0.538,-3.02 0.169,-5.99 2.02,-9.23 -0.801,-2.56 -2.165,-4.56 -3.462,-6.63 -0.353,3.45 -1.216,8.16 -1.73,11.83 -1.516,-3.26 0.586,-8.46 0.578,-11.25 0.675,-0.38 0.644,0.15 1.152,-0.58 -1.219,-1.09 -1.042,-3.57 -2.883,-4.04 0.171,0.75 -0.117,1.04 -0.865,0.87 -0.118,0.69 0.525,0.63 0.288,1.44 -0.432,0.05 -1.066,-0.1 -1.154,0.29 0.333,0.78 0.568,3.29 -0.289,4.33 0.756,-0.09 1.241,0.1 1.155,0.86 -0.733,0.13 -0.817,0.91 -1.155,1.44 -0.459,-1.73 -1.426,-6.46 0.577,-8.07 -0.225,-1.45 -0.277,-1.58 0.578,-2.31 -0.674,-1.44 -1.511,-2.72 -2.307,-4.04 -0.857,0.69 0.101,3.18 -1.73,2.89 -1.084,1.98 0.84,3.89 -1.155,4.61 -0.566,-3.88 0.648,-5.12 0.866,-8.36 0.845,-0.08 0.885,0.65 1.73,0.58 -1.73,-2.03 -2.952,-4.55 -4.902,-6.35 -0.728,2.94 -0.722,7.4 -1.442,11.54 0.434,0.41 1.288,1.87 0.288,2.01 -1.437,-4.41 -0.782,-10.06 0.577,-14.99 -0.332,-0.2 -1.719,-3.69 -3.46,-4.33 -0.902,3.63 -1.35,5.44 -2.308,8.37 0.238,-1.85 0.249,-6.22 1.153,-9.52 -0.923,-0.81 -1.739,-1.72 -2.018,-3.17 -0.696,-0.12 -0.626,0.52 -1.441,0.29 0.945,2.12 -1.829,5.37 0.864,7.49 -1.174,0.12 -1.48,-0.63 -2.307,-0.86 -1.232,-3 3.105,-10.16 -2.019,-11.25 -1.07,2.16 -1.119,3.74 -2.018,5.77 -2.243,-1.7 2.026,-5.12 -1.442,-6.63 -0.086,-0.76 1.118,-0.23 0.865,-1.16 -1.223,-0.69 -2.03,-0.52 -2.885,-1.15 0.35,1.38 1.617,1.84 1.732,3.46 -0.427,0.15 -0.727,0.43 -1.154,0.58 -0.305,1.07 1.081,0.45 0.865,1.44 -0.037,0.92 -0.653,1.27 -1.729,1.15 0.692,-1.65 -0.636,-2.59 0.286,-3.46 -1.081,-0.07 -0.644,-1.66 -1.729,-1.73 0.261,-0.51 0.697,-0.84 0.866,-1.44 -7.687,-1.87 -13.352,-5.15 -18.459,-10.09 -0.574,0 -1.152,0 -1.729,0 -9.608,-5.3 -23.686,-6.06 -28.838,-17.02 -0.432,0.95 -0.704,-0.6 -1.441,-0.29 0.139,0.91 -1.324,0.22 -1.442,0.87 0.336,0.05 0.314,0.45 0.288,0.86 -2.988,2.28 -3.122,6.05 -4.037,10.67 1.199,0.6 1.657,-1.71 2.884,-2.01 0.619,0.24 0.465,1.26 0.865,1.72 -1.642,1.02 -4.613,4.65 -2.308,6.06 0.246,-1.96 1.131,-3.29 2.885,-3.75 -0.498,2.41 -1.731,3.76 -1.731,5.77 -2.054,-0.08 -0.07,5.22 -2.595,5.19 -0.215,0.89 0.995,0.35 0.578,1.44 -0.203,0.57 -1.611,-0.07 -1.732,0.58 1.215,-0.45 0.046,1.49 0.865,1.44 0.071,-0.51 0.498,-0.66 1.155,-0.58 0.207,0.89 -0.296,1.05 -0.288,1.74 1.565,-0.16 0.053,-3.87 2.306,-4.04 -0.718,-1.54 1.366,-5.78 2.885,-5.19 0,0.48 -0.003,0.96 0,1.44 -1.81,-0.02 -1.3,1.53 -1.732,2.31 -0.562,-0.33 -1.474,-0.14 -0.865,0.28 z m -3.749,-2.3 c 0.242,-1.09 2.166,-3.3 0.866,-4.04 -0.723,0.61 -2.347,3.12 -0.866,4.04 z m 18.743,26.24 c -0.281,1.16 1.726,1.16 1.445,0 -0.549,-0.54 -0.726,-0.03 -1.445,0 z m -13.552,25.09 c 0.136,-0.91 -0.36,-1.18 -0.865,-1.44 -0.057,0.82 -0.036,1.57 0.865,1.44 z m 70.366,22.49 c -1.171,-0.11 -2.009,0.11 -2.02,1.16 1.482,1.23 2.808,3.45 4.038,2.88 0.876,-0.4 -0.414,-0.45 -0.29,-1.15 0.09,-0.5 1.353,-3.29 1.73,-4.33 -0.936,-3.12 1.526,-6.07 1.155,-8.94 -0.216,-1.66 -1.719,-2.59 -2.595,-4.04 0.072,4.69 -2.601,9.67 -2.018,14.42 z m 2.883,4.04 c 1.095,0.32 1.801,-0.76 2.019,0.29 -0.43,0.34 -0.448,1.09 -0.866,1.44 -0.694,0.12 -0.627,-0.53 -1.441,-0.29 1.108,0.88 1.57,1.28 2.882,2.31 0.745,-4.73 1.516,-9.67 3.173,-12.69 -2.011,-0.39 -1.918,-2.89 -3.173,-4.04 -0.275,4.84 -0.906,9.66 -2.594,12.98 z m -6.057,-4.33 c -0.098,-1.57 -0.286,-1.57 0.577,-2.3 -0.843,-0.25 0.171,-0.93 0,-1.44 -0.933,0.35 -0.22,-0.94 -1.154,-0.58 -0.143,1.68 -0.709,3.66 0.577,4.32 z m 14.419,10.67 c -1.089,0.82 -0.974,3.8 0,4.91 1.028,-3.13 1.754,-6.96 2.597,-10.96 -1.097,-1.12 -1.426,-3 -3.174,-3.46 0.274,-2.1 -1.034,-2.62 -1.44,-4.04 -0.461,3.06 -1.034,3.71 0,6.34 0.056,0.6 -1.454,1.85 0,2.02 0.583,-1.14 0.13,-3.33 2.017,-3.17 -0.39,2.55 -0.527,3.73 -0.865,6.06 0.776,0.51 0.558,-1.27 0.865,-0.29 -0.336,0.92 -1.614,2.15 0,2.59 z m -50.466,-4.03 c -0.089,-0.88 0.319,-2.25 -0.577,-2.31 -0.648,0.71 -0.885,2.31 0.577,2.31 z m 48.161,1.15 c -0.082,-0.51 0.81,-1.44 0,-1.73 -0.166,0.62 -1.186,1.38 0,1.73 z m 6.056,1.73 c -1.523,-0.01 0.063,1.41 -1.154,1.44 -0.073,1.04 0.865,1.06 0.865,2.02 -0.859,-0.06 -1.018,1.03 -0.577,1.44 -0.288,0 -0.578,0 -0.867,0 0.142,1.8 -1.072,1.98 -0.288,3.46 0.162,-0.83 0.45,0.45 0.867,0.29 1.37,-3.34 1.494,-6.32 2.884,-9.8 -1.026,-0.13 -1.139,-1.17 -1.73,-1.73 -0.706,1.05 -0.352,1.68 0,2.88 z m -7.499,2.02 c -0.187,-1.78 0.852,-3.49 -0.577,-4.33 -0.159,1.69 -1.124,3.68 0.577,4.33 z m 19.608,-0.87 c -1.525,0.5 -1.205,2.83 -1.729,4.33 0.622,0.49 1.516,1.73 2.307,1.15 -0.581,-1.91 1.652,-5.63 -0.864,-7.78 -0.364,1.25 -0.087,1.28 0.286,2.3 z m -9.228,3.75 c -0.544,-1.41 0.35,-1.1 0.579,-2.3 -0.595,-0.08 -0.273,-1.08 -0.867,-1.16 -0.061,0.78 -0.887,2.83 0.288,3.46 z m -8.36,1.73 c -0.034,-0.9 0.63,-1.25 0.288,-2.3 -0.386,0 -0.77,0 -1.155,0 0.029,1.02 0.136,1.98 0.867,2.3 z m 7.209,3.18 c 0.601,-0.17 0.358,-1.87 -0.29,-1.73 -0.237,0.2 -0.773,1.99 0.29,1.73 z m 6.63,2.01 c 0.368,-1.31 -1.067,-3.1 -2.882,-3.17 0.607,1.41 1.865,2.17 2.882,3.17 z m -10.381,0.29 c 0.7,0.74 3.627,1.02 4.039,0.29 -1.384,-0.26 -3.035,-2.06 -4.039,-0.29 z m -10.092,8.65 c -0.645,-0.04 0.373,-0.72 0,-1.44 -0.874,-0.1 -0.598,0.94 -0.865,1.44 0.495,-0.11 0.739,0.43 0.865,0 z"
         id="path443" />
      <path
         d="m 175.211,1184.97 c 1.852,4.38 0.918,10.24 3.174,14.42 -3.636,-3.76 -2.559,-9.32 -3.174,-14.42 z"
         id="path445" />
      <path
         d="m 275.855,1194.2 c 0.241,0.82 -0.406,0.75 -0.286,1.45 0.516,0.03 0.608,-0.36 1.152,-0.29 -0.978,1.07 -0.034,1.14 0.29,2.3 -1.772,2.27 1.295,6.78 -1.156,8.94 1.353,1.07 -0.067,1.84 0.866,3.46 -0.49,-0.1 -0.544,0.23 -0.577,0.58 -0.051,0.25 0.114,0.27 0.289,0.29 -1.127,0.68 -1.623,-2.84 -0.864,-3.17 -1.053,-1.9 -0.204,-4.71 -0.288,-7.21 -0.078,-2.27 -1.051,-5.09 0.574,-6.35 z"
         id="path447" />
      <path
         d="m 295.177,1211.51 c 0.704,1.58 -1.841,1.4 -0.863,2.3 -1.126,0.75 -0.126,-2.44 0.863,-2.3 z"
         id="path449" />
      <path
         d="m 179.251,1219.29 h 1.151 c -0.088,1.42 -0.999,2.67 -0.288,4.04 -0.955,-0.17 -0.714,-2.38 -0.863,-4.04 z"
         id="path451" />
      <path
         d="m 225.678,1296 c -2.729,-2.25 -1.432,-6.56 -2.595,-9.52 0.896,-1.82 0.072,-5.2 -0.575,-7.2 -2.028,-0.01 -3.319,-0.56 -4.614,-0.58 1.303,-1.64 3.581,0.8 4.9,-0.58 11.072,2.78 18.998,5.51 29.416,6.35 -5.059,-8.55 -10.719,-14.7 -18.168,-20.77 0.197,0.68 -0.817,0.35 -1.443,0.87 0.258,-1.53 -1.957,-6.24 -4.614,-4.62 -0.385,-0.28 -0.566,-0.78 -1.153,-0.86 0.867,-1.83 -1.457,-2.36 0,-3.75 0.36,0.6 0.708,1.22 1.153,1.73 2.032,-2.09 1.911,-5.17 3.461,-6.63 0.013,-0.5 -0.213,-0.75 -0.577,-0.87 1.378,-0.9 1.753,2.93 0,3.17 0.103,1.18 0.03,3.34 -1.152,4.04 -0.053,0.63 0.235,0.92 0.863,0.87 -0.03,0.54 -0.953,0.2 -0.863,0.86 1.053,0.77 1.826,1.83 3.171,2.31 1.623,-2.93 1.804,-5.66 3.172,-9.23 1.317,0.66 1.313,-1.5 2.019,-2.3 1.056,2.02 -1.613,2.8 -0.866,5.47 -0.287,0 -0.576,0 -0.864,0 0.027,3.2 -0.415,5.93 -1.729,7.79 0.415,0.45 1.159,0.57 0.863,1.73 1.162,-0.68 0.708,0.46 1.73,0.58 0.824,-2.39 1.284,-6.11 2.884,-7.79 0.171,-1.64 0.891,-6.24 3.462,-5.48 -3.009,4.21 -1.683,10.11 -4.614,14.71 0.809,1.21 2.001,2.03 2.884,3.17 0.666,-2.03 1.377,-4 2.593,-5.48 -0.23,-2.72 0.322,-6.92 2.885,-7.78 -0.481,3.95 -0.871,8.91 -2.885,12.11 0.406,1.76 -1.384,4.61 1.732,5.76 0.705,-0.73 0.792,-2.09 2.307,-2.01 0.766,-4.24 1.65,-8.35 4.615,-10.39 0.405,2.07 -1.555,3.62 -2.019,5.77 -0.693,3.21 -0.307,6.77 -2.884,8.65 1.882,2.45 3.687,4.97 5.48,7.5 -0.01,0.28 -0.355,0.23 -0.577,0.29 1.482,1.4 3.009,0.41 4.325,1.44 1.216,-0.7 0.141,-2.1 1.44,-2.88 -1.154,-3.05 1.141,-6.69 1.155,-10.38 0.835,-0.38 1.95,-0.28 2.019,0.86 -0.257,0.22 -0.65,0.31 -1.153,0.29 0.495,3.01 -1.222,6.13 -0.289,8.65 -1.298,1.12 -0.258,2.85 -0.289,4.04 1.082,0.22 0.977,-0.76 1.441,-1.15 1.08,0.49 -0.091,1.74 0.867,2.01 0.933,-2.14 0.004,-3.36 1.441,-4.9 -0.726,-1.75 0.302,-6.82 2.306,-7.21 -1.018,4.95 -1.225,7.97 -1.441,12.69 0.995,0.64 2.376,0.89 3.462,1.44 0.824,-0.58 -1.204,-2.61 0.575,-1.73 -0.067,-0.79 -0.849,-0.88 -1.44,-1.15 0.093,-0.93 1.583,-0.64 1.729,0 0.873,-1.94 -0.759,-10.28 3.462,-11.54 -0.114,1.14 -0.933,1.57 -1.444,2.31 0.19,2.13 0.075,6.8 0,10.67 -0.002,0.2 -0.421,1.84 -0.575,1.44 0.652,1.69 1.997,0.74 2.882,1.73 1.063,-0.21 -0.122,-0.86 0.577,-1.44 0.681,-0.71 0.538,0.43 1.443,0.29 0.177,-4.84 0.449,-10.22 1.152,-12.98 0.336,0.05 0.515,-0.06 0.579,-0.29 1.635,0.55 0.208,2.03 0,3.18 0.079,2.64 0.118,6.13 -0.289,8.07 -0.217,0.89 0.791,0.55 0.577,1.44 0.258,0.93 -0.941,0.41 -1.155,0.87 0.085,0.17 0.719,1.11 0,1.15 1.122,0.99 3.106,1.12 4.036,2.31 1.496,-2.3 0.241,-5.33 0.289,-8.94 0.695,0.12 0.627,-0.53 1.443,-0.29 -0.224,1.9 0.052,2.68 -0.577,4.32 0.549,0.55 0.725,0.04 1.442,0 -0.199,0.24 -0.448,0.8 0,0.87 0.077,0.94 -1.118,0.61 -1.153,1.44 -0.115,1.44 1.462,2 0.288,2.89 0.318,0.74 1.44,0.67 1.731,1.44 0.232,-0.06 0.288,-0.29 0.577,-0.29 0.602,-1.82 0.781,-3.3 0.577,-4.9 0.88,-0.21 1.048,0.29 1.729,0.29 -1.269,1.81 -0.082,3.29 -0.577,5.19 0.358,0.99 1.868,0.82 1.73,2.3 -0.685,-0.18 -1.342,-0.39 -1.442,-1.15 -0.673,0.38 -1.623,0.49 -2.306,0.87 -3.764,-4.68 -9.678,-5.7 -15.573,-6.93 -1.267,-1.35 -2.34,-1.45 -4.614,-1.44 -0.267,0.31 -1.064,0.09 -0.864,0.87 -0.694,0.12 -0.626,-0.53 -1.444,-0.29 -0.159,-3.31 -3.64,-1.86 -6.343,-3.46 -0.875,0.35 0.313,0.99 0,1.73 -1.784,-0.4 -1.359,-1.32 -2.306,-2.31 -6.102,-0.24 -7.738,0.06 -12.979,-1.73 -0.617,0.73 -0.277,2.96 0.866,2.88 -1.682,1.27 1.007,4.71 0.866,7.21 0.352,0.52 1.671,0.06 1.152,1.45 -2.241,-0.61 -3.854,-4.68 -2.307,-5.77 -0.283,-0.81 -0.769,0.42 -1.152,-0.29 -0.38,-0.78 -0.094,-4.18 -1.732,-4.61 0.265,-0.51 0.538,-1.01 1.443,-0.87 -1.509,-0.26 -3.541,-1.75 -5.191,-0.57 1.525,3.59 1.105,7.68 2.595,10.09 -3.937,-0.41 -2.217,-8.52 -4.038,-9.81 -0.167,-1.03 0.855,-0.87 1.732,-0.86 -3.014,-1.94 -7.916,-1.69 -10.671,-2.6 -0.258,0.93 0.941,0.41 1.154,0.87 -1.159,1.57 0.202,3.12 -0.865,4.9 0.669,-0.37 0.281,-0.08 0.288,0 0.193,2.88 0.833,8.06 1.441,10.38 z"
         id="path453" />
      <path
         d="m 304.119,1281.29 c -0.579,1.68 0.202,2.26 0,3.75 -0.834,1.02 -1.448,-3.84 0,-3.75 z"
         id="path455" />
      <path
         d="m 271.819,1304.65 c -0.1,0.59 0.955,0.96 1.156,2.02 -0.823,0.24 -0.97,1.15 -1.445,1.73 1.742,0.37 4.423,0.41 5.191,-2.02 6.654,-1.71 10.037,-5.21 17.016,-6.05 -1.166,-1.51 -3.362,-0.26 -3.748,-2.6 -0.297,0.19 -0.3,0.67 -0.866,0.58 -1.252,-0.94 -0.899,-3.56 -0.289,-4.9 0.524,1.11 1.19,2.18 0,2.88 0.844,0.98 2.391,1.26 2.884,2.6 4.316,0.24 9.866,3.6 13.553,5.48 0.481,0.57 -0.025,0.36 0,1.15 1.131,-1.34 1.432,1.38 3.173,1.15 -0.574,1.42 0.693,0.07 0,1.73 0.589,-0.6 2.568,-0.9 3.46,-0.29 10e-4,1.65 -1.896,2.9 -2.882,2.6 -1.869,2.35 -4.014,1.38 -5.769,3.46 0.054,0.23 0.289,0.29 0.289,0.58 2.172,-0.64 3.677,-2.57 6.055,-1.16 0.109,0.98 -0.5,1.23 -0.864,1.73 3.105,0.36 5.396,-5.24 9.228,-3.17 -0.013,1.91 -1.3,2.55 -2.019,3.75 1.487,1.09 2.633,-0.63 3.459,-1.15 0.679,0.09 1.082,0.45 2.018,0.28 1.697,-2.62 3.228,-6.55 5.193,-8.65 1.281,-0.45 -0.944,2.12 0.578,1.16 0.879,0.71 -0.88,1.21 -1.443,1.44 1.979,0.56 -0.83,0.52 -1.443,1.73 0.188,0.29 0.664,0.3 0.578,0.86 -1.976,0.87 -2.872,6.35 -4.037,8.08 0.08,0.59 0.769,0.57 1.153,0.86 -0.024,2.67 -2.979,2.41 -2.885,5.2 1.426,-0.22 1.847,-0.12 2.885,-0.29 -0.414,1.38 -3.213,2.05 -3.46,0.86 -0.865,0.64 -0.014,1.33 -0.577,2.02 0.466,0.05 0.359,0.54 1.44,0.58 0.216,0.88 -0.79,0.55 -0.574,1.44 0.633,0.71 1.177,-1.11 2.018,-1.15 -0.333,-0.35 -0.326,-1.02 -0.289,-1.74 1.749,0.02 1.8,-1.65 3.171,-2.01 0.026,0.45 -0.139,1.1 0.289,1.15 2.381,-1.04 1.638,-3.58 3.174,-5.19 -0.734,-1.05 -1.939,-0.04 -2.597,-0.87 0.221,-1.6 2.614,-1.04 3.751,-1.73 0.745,-2.13 1.846,-3.91 3.169,-5.48 -0.631,-0.76 -1.149,0.66 -2.595,0.58 -0.321,0.91 -0.025,0.65 0,1.73 -0.93,0.87 -1.959,0.87 -3.459,0.58 0.61,-2.18 2.905,-2.67 4.325,-4.04 0.312,0.07 0.195,0.58 0.577,0.58 0.857,-0.59 1.101,-1.78 2.596,-1.73 -0.335,-2.84 -4.355,-1.99 -4.902,-4.62 1.381,-0.41 1.825,-1 3.458,-0.57 -0.185,2.3 2.031,2.2 3.173,3.17 0.087,0.76 -0.398,0.94 -1.154,0.86 -0.047,0.63 1.023,0.13 1.444,0.29 -0.421,2.08 -1.932,3.07 -3.463,4.04 0.277,0.97 1.394,1.1 2.307,1.44 -0.724,1.01 -0.868,2.59 -2.018,3.17 0.501,0.56 1.291,0.83 1.73,1.45 1.141,-2.04 2.309,-4.04 3.462,-6.06 0.603,-0.12 0.763,0.2 1.153,0.29 0.731,-1.39 1.102,-3.13 3.459,-2.89 0.336,-0.36 -1.39,-1.6 0.579,-1.73 -0.406,-1.3 -0.002,-2.41 0.578,-3.46 1.636,0.1 2.384,-0.69 3.17,-1.44 0.42,0.53 -0.822,1.86 -1.73,2.02 -0.005,2.11 0.239,4.47 -1.729,4.61 0.678,1.57 -2.54,2.92 -3.462,2.89 -1.693,4.5 -6.018,7.77 -6.055,12.97 -0.462,0.89 -1.38,1.32 -1.732,2.31 0.162,0.65 0.45,-0.35 0.867,0.29 1.4,-0.71 2.529,-1.7 3.172,-3.17 1.391,4.19 -5.018,3.78 -6.057,7.21 -0.846,-0.25 0.375,-0.73 0,-1.44 -1.542,1.85 -3.07,2.26 -5.191,3.17 0.187,0.29 0.664,0.3 0.577,0.86 -1.12,1.1 -2.465,1.96 -2.595,4.04 -1.216,0.45 0.062,-1.6 -1.153,-1.15 -9.296,7.26 -19.146,14.94 -25.668,23.35 1.392,0.81 2.99,-0.65 3.174,-2.01 5.202,-3.07 8.122,-8.41 13.553,-11.25 0.429,-2.36 3.562,-2.02 4.038,-4.32 2.966,-0.96 4.628,-4.07 7.21,-5.48 0.8,-0.45 2.147,-0.09 2.884,-0.58 1.619,-1.09 1.725,-3.35 2.882,-4.9 0.065,0.42 1.462,1.58 0.289,1.44 -0.017,-1.33 -0.819,0.42 -0.577,1.15 5.993,-2.18 8.517,-7.83 10.959,-13.55 0.336,-0.24 0.772,-0.38 1.44,-0.29 -0.33,-0.34 -0.325,-1.02 -0.288,-1.73 -0.858,-0.07 -0.978,1.06 -1.729,0.29 -0.045,-2.26 1.673,-2.75 2.017,-4.62 0.468,-0.08 0.498,0.28 0.867,0.29 0.959,-0.29 -0.077,-1.16 0.867,-1.73 -0.366,-0.43 -1.179,-0.87 -0.578,-1.44 1.894,0.21 1.377,1.99 2.884,2.02 -0.376,0.87 -0.838,1.66 -1.154,2.59 0.005,0.68 0.786,-0.1 0.577,-0.57 1.151,1.61 -1.566,0.81 -0.577,2.02 -0.174,-0.17 -1.368,-0.68 -1.441,0 0.502,-0.67 -2.516,-1.18 -2.019,0.57 0.165,0.6 1.089,-0.41 1.73,-0.29 -1.249,3.75 -3.061,6.94 -5.191,9.81 1.374,-0.29 3.421,-0.59 3.747,-2.6 0.515,0.26 0.736,0.81 1.733,0.58 -0.592,2.68 -3.185,3.36 -5.48,4.33 0.101,0.95 1.661,0.45 2.595,0.57 0.821,2.15 -1.314,3.07 -2.306,3.46 0.166,0.7 1.088,0.64 1.729,0.87 2.196,-4.82 5.228,-8.81 6.921,-14.13 -0.286,-0.06 -0.78,-1.27 -0.864,-0.58 -0.384,-0.97 2.546,-1.1 2.019,-3.17 0.34,0.91 1.682,0.81 1.729,2.02 -0.371,0.49 -0.949,0.78 -1.729,0.86 -0.003,1.06 1.009,1.11 1.44,1.73 -0.321,3.39 -3.405,2.24 -3.748,5.48 1.53,0.24 1.499,-1.66 2.597,-0.29 0.823,-0.42 1.398,-1.1 1.728,-2.02 1.539,-0.03 -1.302,2.32 0.867,1.45 -1.491,2.85 -3.973,3.92 -5.769,6.92 0.411,1.25 1.709,0 2.595,0 -0.86,1.1 -2.343,1.71 -3.461,1.15 -0.077,-2.59 1.22,-4.22 2.596,-6.05 -0.29,0.54 -0.962,0.03 -1.441,0.28 -1.547,0.81 -2.16,3.87 -3.463,6.64 -0.728,1.55 -1.926,2.57 -2.305,3.74 -0.522,1.62 -2.084,6.25 -3.748,8.08 0.33,1.19 1.361,-0.1 1.73,-0.58 0.907,-0.14 1.126,0.41 1.729,0.58 -0.193,2.3 -2.707,2.29 -4.038,3.46 0.153,-0.23 0.301,-0.47 0.289,-0.86 -0.588,0.16 -0.565,0.86 -1.154,0.28 v 0.87 c 1.309,1.33 4.724,-1.58 5.192,0 2.496,-2.4 7.38,-11.02 1.731,-12.11 1.105,-1.09 2.943,0.24 4.614,0.28 2.711,-2.74 2.729,-6.62 5.477,-9.51 -0.487,-0.28 -0.739,-0.8 -0.574,-1.73 1.236,-0.66 2.124,-1.11 3.459,-0.29 -0.115,1.33 -0.795,2.09 -1.731,2.6 0.356,1.57 1.233,0.27 2.309,0.28 0.222,-3.23 3.658,-3.26 4.325,-6.05 0.765,0 1.647,-0.11 2.018,0.29 0.181,0.78 -1.306,1.35 -0.578,1.73 -2.229,0.27 -2.37,2.62 -4.325,3.17 -0.06,0.49 0.492,0.75 0,0.86 0.039,0.83 1.204,0.53 2.019,0.58 0.031,0.89 -0.129,1.6 -0.576,2.02 0.029,0.74 1.075,0.46 1.442,0.86 -0.256,0.5 -0.369,1.71 0.288,0.87 0.015,0.88 -0.425,2.51 -1.73,2.6 0.223,0.25 0.31,0.65 0.29,1.15 2.003,-0.3 1.936,-2.68 4.613,-2.31 -0.223,0.71 1.38,1.66 0,1.73 0.357,0.91 0.837,0.06 1.441,0.87 0.045,-1.08 2.279,-4.44 3.748,-3.17 1.979,-3.87 1.565,-9.2 5.48,-11.54 0.769,0.48 0.85,1.65 2.018,1.73 0.289,-1.59 1.57,-3.59 2.885,-1.73 -0.397,-2.01 -2.619,-2.19 -3.748,-3.46 -0.039,-0.52 0.351,-0.61 0.288,-1.16 2.69,0.05 6.4,-0.72 9.229,-1.44 0.204,-0.84 -1.272,-0.16 -0.289,-1.15 -0.564,-0.31 -1.362,-0.09 -2.02,-0.86 0.483,-4.32 6.286,-4.18 9.517,-3.47 -0.042,-0.63 -0.728,-0.62 -1.443,-0.57 0.005,-0.77 -0.108,-1.65 0.289,-2.02 3.126,-0.34 5.777,-1.14 8.076,-2.31 -0.092,-0.96 -1.369,0.87 -1.156,-0.58 -3.486,2.33 -5.25,-0.68 -8.361,-1.44 0.479,-1.34 1.701,-1.95 2.595,-2.88 -0.91,-0.79 -0.994,-0.7 -2.595,-0.58 0,-0.48 0,-0.96 0,-1.44 2.547,-0.31 2.808,-1.99 4.614,-3.46 -0.31,-1.67 -1.847,-0.47 -2.596,-1.44 -1.366,0.38 -1.874,1.76 -3.462,1.15 -0.054,-3.03 3.252,-2.71 6.058,-2.88 0.415,0.64 0.612,1.5 1.73,1.44 -0.01,1.35 -0.757,2.63 -2.019,3.46 0.376,1.37 2.573,1.07 3.173,1.44 -0.239,0.82 0.406,0.75 0.288,1.45 -1.103,0.88 -3.219,-0.38 -3.75,1.44 1.366,1.24 4.227,-1.53 5.77,-0.29 0.121,0.6 -0.199,0.76 -0.289,1.15 1.684,1.36 4.132,1.12 5.479,1.73 -0.317,0.65 -0.478,1.45 -0.866,2.02 -1.485,-0.04 -2.514,0.37 -3.461,0.87 v 2.59 c -1.664,-0.64 -2.597,0.49 -2.597,2.31 -1.017,-0.16 -1.261,0.47 -1.728,0.86 0.422,1.02 1.804,1.08 2.596,1.73 -0.075,0.94 0.482,0.97 0.866,2.02 9.595,-1.09 20.51,-6.83 29.125,-3.17 3.35,-0.38 5.325,1.09 8.362,1.73 0.921,0.25 0.893,-0.45 1.443,-0.58 3.613,0.91 6.366,5.49 4.037,8.94 -1.234,-0.59 -2.741,-0.91 -2.595,-2.88 -0.672,-0.4 -2.695,-0.62 -2.885,-2.31 -0.813,-1.08 -4.388,-1.62 -5.48,-2.59 -9.623,-1.92 -17.779,-0.29 -26.242,2.01 -0.327,0.06 -0.159,0.3 0,0.29 -1.553,0.8 -2.729,0.19 -4.325,0.87 0.047,0.33 -0.064,0.51 -0.289,0.58 0.662,1.33 0.354,2.49 2.018,3.17 -1.45,2.64 5.177,1.92 7.211,2.59 0.046,0.02 -0.045,0.57 0,0.58 4.862,0.95 10.154,0.67 14.418,1.73 6.873,3.9 15.548,4.79 17.88,13.56 1.059,0.82 2.423,1.69 3.462,1.73 0.922,2.85 0.499,4.39 1.73,7.49 -0.507,0.17 -1.696,-0.35 -1.73,0.29 -0.677,-0.67 -1.748,-0.94 -1.731,-2.31 -4.961,-3.01 -3.979,-11.97 -10.381,-13.55 -0.244,-0.81 -0.335,-1.78 -0.577,-2.6 -0.878,0.36 0.312,1 0,1.74 -1.941,-0.18 -3.025,-1.21 -5.191,-1.16 -5.246,-4.57 -15.166,-3.06 -22.495,-5.48 0.641,3.91 0.32,6.87 -2.018,10.09 -0.749,1.04 -3.011,2.38 -4.036,3.76 -0.266,0.35 0.006,0.86 -0.288,1.15 -0.501,0.49 -1.59,0.64 -2.02,1.15 -0.19,0.23 0.15,0.89 0,1.15 -1.356,2.38 -4.482,3.1 -2.595,5.77 -8.297,2.74 -13.124,11.24 -21.918,14.42 -0.785,0.21 -0.58,-0.57 -1.152,-0.57 -2.745,2.07 -7.614,1.53 -10.671,0.86 -1.014,-0.05 -0.948,0.97 -1.73,1.15 -3.077,-0.4 -4.433,-3.67 -7.787,-2.88 0.183,-1.45 -0.016,-1.98 0.29,-2.88 -3.183,-2.64 -3.551,-10.26 0.863,-12.98 -0.202,-0.86 -0.859,-1.26 -0.575,-2.6 -0.872,-0.56 -1.2,1.87 -2.595,1.73 -0.165,2.15 -0.98,3.64 -2.019,4.91 0.031,0.55 0.964,-0.34 1.729,0 -0.237,0.91 -1.238,1.07 -2.018,1.44 0.066,0.51 -0.291,1.44 0.575,1.15 -0.249,0.84 -0.431,0.32 -1.152,0.29 1.115,1.38 -0.557,1.21 -0.866,2.6 -1.151,-0.16 -0.868,-0.16 -2.019,0 0.968,-4.59 3.28,-6.69 4.903,-10.96 -0.244,-0.85 -0.724,0.37 -1.441,0 0,-0.48 0,-0.96 0,-1.45 5.607,-1.5 5.807,-8.42 9.806,-11.53 -1.194,-1.22 0.52,-1.41 0.288,-3.17 -3.614,0.94 -3.154,7.37 -6.634,7.49 0.23,-0.82 0.583,-1.52 0.865,-2.3 -2.386,1.07 -2.739,4.18 -4.325,6.06 -0.411,4.99 -5.656,6.61 -4.902,11.82 -0.729,0.43 -0.857,1.45 -2.307,1.15 -0.228,-1.19 0.441,-1.48 0.289,-2.59 -0.156,-0.5 -1.389,0.31 -2.021,0.28 -0.035,0.52 0.354,0.61 0.288,1.16 -1.577,-1.23 -5.271,-3.26 -5.766,0.57 0.191,0.87 0.616,-0.27 1.152,0 -0.474,1.54 0.705,1.42 1.444,1.74 0.164,2.55 -0.736,3.5 0,6.34 0.136,-1.11 1.477,-1.02 1.729,-2.02 0.673,0.09 1.193,0.35 1.73,0.58 0.013,2.73 -2.208,4.67 -1.73,6.92 1.006,-0.34 1.578,-1.12 2.885,-1.16 0.32,1.89 -0.209,3.46 -0.865,5.2 0.52,0.53 1.057,1.05 2.306,0.86 -0.415,3.39 2.119,3.84 1.443,7.5 5.97,0.56 7.267,5.8 10.38,9.23 -0.046,2.32 -0.34,3.18 0.865,4.32 0.015,1.27 -0.154,2.35 -0.865,2.89 -4.066,-2.2 -5.377,-8.63 -9.517,-9.81 -0.893,-1 -1.671,-3.09 -3.171,-2.59 0.079,-1.24 -0.81,-1.5 -1.731,-1.73 -0.045,-0.92 -0.651,-1.27 -0.577,-2.31 -0.657,-0.22 -2.248,0.07 -2.882,-0.87 -1.429,1.7 -4.506,0.38 -3.75,-2.01 -0.673,0 -1.345,0 -2.017,0 -0.978,-0.76 -0.933,-2.53 -0.868,-4.33 -0.967,-0.52 -4.312,-1.4 -5.189,-0.29 -1.449,-1.42 -4.259,-2.74 -3.749,-5.19 -0.684,-0.66 -1.916,-0.78 -1.731,-2.31 -1.124,-0.03 -2.109,-0.2 -2.594,-0.86 -3.619,2.02 -2.132,10.66 -4.615,14.42 2.612,6.89 8.944,9.6 16.726,10.67 -0.471,1.31 1.401,0.91 0.577,1.73 4.021,1.93 10.217,2.12 13.265,5.77 -2.359,2.79 1.555,10.05 -1.441,12.97 -4.349,-1.6 -1.493,-8.87 -3.174,-11.53 -1.959,-2.5 -6.789,-4.53 -10.67,-6.06 -0.904,-0.14 -0.76,0.78 -1.441,0.87 -5.412,-1.4 -10.716,-2.16 -15.572,-4.04 -0.438,0.72 -0.558,1.75 -0.577,2.88 -3.485,6.24 -3.517,15.38 -10.383,18.75 0.031,1.95 -2.076,3.3 -3.748,2.59 -1.351,0.67 -1.32,2.72 -3.749,2.31 -0.139,0.91 0.885,0.65 0.577,1.73 -0.787,-0.03 -0.58,0.48 -1.154,0 -1.305,1.68 -4.277,2.63 -5.479,5.19 -0.996,-0.23 -1.217,0.54 -1.732,0 -1.656,0.84 -1.614,3.38 -3.169,4.33 -0.433,-0.88 -0.868,-0.16 -1.445,-0.58 -7.281,3.43 -13.94,3.07 -21.339,2.59 -4.665,-3.03 -8.505,-5.67 -12.4,-9.8 0,-0.19 0,-0.38 0,-0.58 -0.087,-0.76 0.603,-0.74 1.154,-0.86 -0.697,-2.48 -4.319,-2.03 -6.057,-3.46 -0.512,-1.22 -0.425,-3.04 -2.019,-3.17 -1.921,-5.3 -5.482,-5.49 -9.805,-8.08 1.308,-1.95 -0.88,-5.35 0.577,-6.92 -1.189,-1.31 -0.553,-4.44 -2.306,-5.19 -0.339,-2.84 -3.434,-5.87 -3.748,-9.81 -0.137,-1.7 0.995,-3.34 0,-4.9 0.232,-0.15 0.467,-0.3 0.863,-0.29 -0.563,-3.69 -2.325,-7.91 -1.729,-11.24 0.054,-0.31 -0.582,-0.23 -0.577,-0.29 0.095,-1.02 0.871,-2.02 0.866,-2.89 -0.003,-0.38 -0.564,-0.67 -0.578,-0.57 0.158,-1.23 1.345,-2.7 1.443,-4.04 0.029,-0.42 -0.633,-0.76 -0.577,-1.15 0.594,-4.26 2.157,-8.69 1.152,-13.84 h 0.866 c -0.138,-1.51 1.069,-2.24 0,-3.18 4.222,-10.02 5.353,-22.34 14.13,-28.26 0.806,-1.69 4.249,-3.17 3.174,-4.9 -0.653,0.14 -0.631,1.41 -1.443,0.57 -0.392,0.09 -0.24,0.73 -0.289,1.16 -1.298,-0.05 -2.638,-0.14 -2.593,1.15 -0.196,-1.29 -2.048,-2.38 -4.04,-2.02 -0.816,-1.37 -1.966,-1.55 -3.458,-1.15 -1.388,-1.12 -4.54,-1.33 -6.058,-1.44 -3.952,-1.01 -7.139,-3.81 -10.669,-6.64 -0.833,-2.45 -0.76,-4.39 0.863,-5.19 v 1.74 c 0.771,-0.2 1.056,-0.87 1.445,-1.45 0.29,0.19 0.298,0.67 0.863,0.58 -0.675,1.11 0.69,2.47 -0.863,2.6 2.653,4.01 6.578,5.09 11.534,6.92 4.598,-0.74 6.531,3.4 10.383,3.17 1.689,-0.1 2.93,-1.81 5.477,-1.73 0.641,-0.16 0.411,0.55 0.866,0.58 3.025,-2.86 9.642,-2.94 10.382,0.86 4.149,-0.6 8.339,-5.49 13.553,-4.04 0.202,0.89 0.202,0.56 0,1.44 0.494,1.43 4.234,-0.38 3.749,2.02 h 1.154 c 0.784,-0.41 0.406,-1.6 0.577,-3.17 0.432,0.46 1.179,0.21 1.441,-0.29 z m 25.954,7.79 c 1.422,0.53 3.609,-1.71 4.615,-0.87 0.666,-2.61 4.034,-1.18 5.191,-4.03 -2.796,-2.47 -6.884,-3.37 -8.362,-6.06 -1.059,0 -2.118,0 -3.174,0 -1.248,1.43 -4.149,2.13 -6.92,1.73 -0.034,0.35 -0.087,0.68 -0.578,0.58 0.08,0.98 1.127,0.99 1.155,2.02 0.815,0.04 0.672,-0.87 1.441,-0.87 3.476,1.64 8.022,-1.3 9.516,2.6 1.53,-0.43 2.664,-0.5 3.751,0.57 -0.714,2.86 -4.314,2.07 -6.635,4.33 z m -8.073,-6.35 c -1.134,0.35 -2.168,-0.88 -2.885,0 0.982,0.44 2.031,0.7 2.885,0 z m -8.653,6.35 c 2.675,-1.27 6.384,-1.5 8.942,-2.89 -4.455,-0.39 -10.775,1.23 -14.708,4.33 0.19,-0.92 -2.95,0.98 -2.02,1.73 2.065,-1.01 4.979,-1.17 6.634,-2.59 -3.318,3.46 -7.587,4.75 -11.823,5.48 -2.345,-2.7 -5.962,0.2 -8.076,-2.6 0.862,-2.68 4.114,-3.71 6.633,-3.17 -1.184,-2.95 -5.978,-0.85 -8.362,-0.87 0.454,-1.43 1.037,-1.85 0.288,-3.17 0.298,-0.95 1.143,0.06 1.441,-1.15 -3.379,0.28 -4.035,1.36 -6.92,1.73 -0.721,1.81 -3.586,2.38 -4.615,2.3 0.205,-1 0.378,-1.86 1.152,-2.88 -1.112,-1.29 -4.238,-0.57 -5.765,-1.44 -0.294,2.4 -1.818,3.56 -4.04,4.04 -2.096,3.47 -5.253,5.89 -8.073,8.65 0.245,1.76 -0.723,3.31 -2.018,4.32 -0.16,1.12 1.244,0.68 1.441,1.45 0.072,-0.86 -1.141,-1.43 0,-1.74 0.979,0.97 2.271,-0.61 3.462,1.16 -0.645,1.61 -2.076,3.32 -2.885,4.9 0.021,-0.04 0.498,0.33 0.288,0.58 -0.104,0.12 -0.541,-0.36 -0.577,-0.29 -0.189,0.37 0.111,1.04 0,1.44 -0.171,0.63 -0.983,0.71 -1.443,1.44 -1.334,2.13 0.039,5.17 -1.441,7.79 -1.187,-0.76 -0.481,1.54 -0.577,2.31 -0.46,3.67 -1.683,8.28 -2.307,10.67 0.509,0.87 0.894,-0.79 1.154,0 -0.29,1.01 -0.499,0.52 -1.154,0.86 0.556,2.1 -1.211,4.17 0.866,5.77 1.366,-4.14 2.946,-7.67 2.884,-12.11 0.946,-1.41 1.608,-3.94 0.864,-4.91 1.607,-0.51 0.38,-0.57 0,-1.15 1.481,-3.57 2.769,-8.56 4.614,-11.82 h 1.443 c 0.263,0.59 0.005,1.69 0.577,2.59 -1.595,0.95 -1.804,2.21 -1.732,4.04 -0.537,0.04 -0.962,0.19 -1.152,0.58 0.937,1.66 -2.058,5.36 -0.865,6.34 1.541,-2.5 1.607,-6.46 4.036,-8.07 -0.38,-2.11 1.833,-3.73 3.172,-2.31 -0.222,1.15 -1.053,2.14 -0.577,3.17 -0.544,-0.06 -0.636,0.33 -1.152,0.29 0.709,1.73 -0.967,2.12 -0.577,4.32 -2.671,1.95 -3.314,7.91 -4.614,10.96 1.312,0.01 -3.236,4.74 -1.73,7.21 -0.567,0.95 -1.441,-0.09 -1.732,0.87 0.869,0.09 0.341,1.58 1.155,1.73 -2.035,3.63 -2.923,6.68 -2.596,11.54 1.256,0.29 1.326,-0.6 2.018,-0.87 1.919,-12.9 5.063,-23.57 10.96,-32.88 0.12,0.65 1.58,-0.04 1.441,0.87 -0.208,1.43 -1.027,2.24 -1.152,3.75 -0.289,0 -0.578,0 -0.866,0 -2.696,6.76 -5.94,16.34 -6.921,22.49 0.664,-0.33 1.707,-1.04 2.018,-2.02 1.758,-5.47 4.63,-16.85 7.788,-21.05 0.917,-1.22 2.591,-1.12 3.459,-1.15 v 2.02 c -1.908,1.74 -2.685,4.62 -4.614,6.34 -1.444,7.87 -5.799,14.26 -6.056,21.05 4.734,-8.14 7.981,-17.78 13.265,-25.37 -0.857,-1.21 2.336,-3.42 3.462,-1.73 -2.112,6.07 -7.146,10.71 -7.787,17.3 -1.511,1.66 -2.634,5.24 -2.596,7.49 2.181,-4.89 4.497,-9.53 6.632,-15.28 1.275,-2.2 4.626,-5.02 3.751,-7.5 0.891,-0.06 1.119,-0.8 1.729,-1.15 -1.121,-0.09 0.254,-3.57 0.866,-2.88 0.081,-0.51 -0.812,-1.44 0,-1.74 1.355,1.73 -1.9,4.59 1.442,5.2 0.194,2.59 -2.322,2.48 -2.308,4.9 0.846,0.43 1.071,-0.33 1.442,0.58 -0.896,2.36 -1.635,4.9 -3.748,6.05 0.577,0.8 1.584,2.39 -0.289,2.6 0.558,0.5 -0.246,2.36 0.866,2.3 1.838,-2.31 3.763,-11.23 7.786,-9.22 0.106,0.8 -1.098,1.75 -0.288,2.3 1.434,-0.2 1.109,-2.16 2.307,-2.59 1.999,3.67 -1.686,5.39 -2.596,8.36 -1.393,4.54 -3.637,9.84 -4.903,14.13 0.782,-0.21 -0.205,1.36 0.578,1.15 3.804,-4.65 2.134,-17.09 9.802,-15.57 -2.529,5.35 -6.612,9.92 -5.766,18.17 2.295,-1.8 3.021,-3.38 3.749,-6.63 0.176,-0.5 1.367,0.02 1.443,-0.58 -0.162,-0.05 -0.65,-0.03 -0.578,-0.29 0.799,-2.89 2.233,-8.2 4.326,-9.8 h 1.443 c 1.661,-5.05 2.795,-10.7 5.766,-15.57 h 1.73 c -0.383,2.21 -3.322,3.07 -2.594,5.47 -1.403,0.2 -1.577,2.5 -0.865,3.18 -2.519,2.17 -1.382,6.4 -3.462,8.07 -0.139,0.91 0.884,0.65 0.577,1.73 -1.621,1.14 -1.46,3.72 -1.729,5.48 1.105,0.05 0.621,-1.49 1.729,-1.44 1.089,-0.03 1.551,0.56 1.73,1.44 -0.392,1.53 -1.387,2.46 -1.441,4.33 0.883,0.2 0.847,-0.5 1.73,-0.29 2.194,-12.83 4.395,-21.03 7.786,-31.72 -0.544,-0.07 -0.636,0.32 -1.155,0.28 -2.58,-2.49 -4.149,-5.18 -4.325,-9.51 -1.813,-0.69 -3.18,-1.82 -3.747,-3.75 1.968,-0.24 3.201,0.26 3.747,1.44 0.829,-0.52 1.646,-1.05 1.733,-2.31 -1.675,-0.65 -3.603,0.91 -4.328,-1.15 0.202,-1.73 3.583,-1.79 2.884,-3.46 -0.816,0.57 -3.584,-0.11 -2.307,-1.73 -1.647,-0.21 -2.624,1.47 -4.036,0.58 -0.815,0.49 0.106,1.13 -0.866,1.15 -0.474,-0.96 -1.176,-0.84 -1.152,-1.73 3.297,-1.03 4.399,-4.25 8.072,-4.9 0.271,-1.09 0.017,-1.36 0.289,-2.02 0.397,0.01 0.634,-0.14 0.867,-0.29 1.037,-0.08 1.388,0.53 2.306,0.58 3.64,-1.18 7.752,-3.94 10.668,-4.04 -0.426,-0.94 1.623,-0.83 0.578,-1.44 -1.572,0.63 -5.615,0.74 -8.072,2.59 -0.731,-1.21 -1.885,0.19 -2.022,0 0.092,-0.39 0.411,-0.55 0.289,-1.15 z m 10.959,-4.61 c -0.39,0.85 -0.361,1.78 0.289,2.3 1.974,-1.06 3.429,-0.85 5.19,-2.02 -1.955,-0.59 -3.204,-0.33 -5.479,-0.28 z m -19.031,2.3 c -0.048,-0.34 0.048,-0.82 -0.289,-0.86 -0.033,0.54 -0.956,0.2 -0.867,0.86 0.341,0.05 0.82,-0.05 0.867,0.29 -0.454,0.12 -0.246,0.91 -1.156,0.58 0.167,0.5 -0.347,1.69 0.289,1.73 3.108,-1.07 6.912,-2.52 8.65,-4.04 -2.855,-0.33 -5.266,-0.27 -7.494,1.44 z m -3.751,1.73 c -0.084,-1.27 1.358,0.94 1.443,-0.86 -0.577,0 -1.155,0 -1.732,0 0.045,0.34 -0.05,0.82 0.289,0.86 z m 27.108,1.44 c -1.088,-0.92 -2.387,1.21 -3.461,0.29 0.236,1.59 -3.284,0.93 -2.019,2.6 1.89,-0.96 4.638,-1.78 6.921,-3.46 -0.678,-0.37 -0.535,0.03 -1.441,-0.29 z m 17.878,0.87 c 0.266,-0.79 0.538,0.77 1.443,0.29 -0.394,-1.26 1.118,-0.62 0.865,-1.73 -0.81,-0.78 -1.184,0.51 -2.308,0.29 0.397,0.65 -0.741,1.08 0,1.15 z m -23.936,6.06 c 4.366,-2.24 9.195,-2.29 12.402,-5.48 -0.381,-0.01 -0.263,-0.51 -0.577,-0.58 -4.112,1.67 -10.059,3 -11.825,6.06 z m -27.393,-4.33 c 1.536,0.55 3.964,-0.35 4.325,-0.87 -0.901,0.23 -3.591,-0.8 -4.325,0.87 z m 16.725,2.31 c -1.628,0.94 -2.633,1.73 -3.751,2.02 0.911,1.38 -0.9,0.26 -0.863,1.44 4.264,-1.51 6.968,-4.57 11.823,-5.48 -0.346,-0.84 1.73,-1.32 0.29,-1.44 -2.625,1.74 -5.218,2.13 -7.499,3.46 z m 7.499,0 c 0.727,-1.2 3.295,-0.55 3.169,-2.6 -1.218,0.52 -3.942,1.05 -3.169,2.6 z m 43.256,-1.16 c 0.398,-0.01 0.631,0.14 0.864,0.29 0.256,-0.51 0.805,-0.73 0.577,-1.73 -0.954,0.01 -1.436,0.49 -1.441,1.44 z m -12.111,2.89 c 0.511,0.54 0.731,-0.24 1.728,0 -0.448,-1.12 1.183,-2.59 0.29,-2.31 -0.345,1.72 -2.101,0.49 -2.018,2.31 z m -39.798,2.59 c 1.025,-1.31 2.431,-1.23 3.172,-2.3 0.117,0.36 0.372,0.58 0.867,0.57 -0.172,-1.13 1.581,-0.34 1.152,-1.73 -2.218,0.48 -4.983,1.94 -5.191,3.46 z m 8.074,-4.61 c -0.966,-0.71 -1.647,1.47 -2.883,0.58 0.138,1.71 2.584,0.2 2.883,-0.58 z m 56.811,0.86 c -0.603,-0.16 -0.82,-0.71 -1.731,-0.57 -0.263,1.33 1.405,1.35 1.731,0.57 z m -15.57,2.02 c 0.166,1.06 0.14,1.17 0.288,2.6 -0.93,0.13 -1.675,0.44 -1.443,1.73 2.443,0.13 2.538,-2.08 4.901,-2.02 0.159,0.67 -1.459,0.99 -0.578,1.44 1.099,-1.02 2.032,-2.2 2.597,-3.75 -0.887,-0.21 -0.554,0.79 -1.44,0.58 0.241,-0.34 0.379,-0.77 0.288,-1.44 -0.549,-0.13 -0.725,-0.63 -1.445,-0.58 -0.896,0.57 -2.056,1.03 -3.168,1.44 z m 61.134,1.15 c -0.037,0.72 -0.042,1.39 0.289,1.74 1.832,-0.57 3.51,-1.3 5.191,-2.02 -1.263,-0.49 -1.323,-2.32 -2.596,-2.02 -0.354,1.38 -1.173,2.29 -2.884,2.3 z m -101.507,-0.57 c 0.74,-0.04 2.409,-0.64 1.729,-1.15 -0.371,0.58 -1.62,0.3 -1.729,1.15 z m 16.437,0.57 c 0.215,-0.93 2.241,-0.06 2.017,-1.44 -0.628,0.35 -2.726,0.72 -2.017,1.44 z m 2.883,1.16 c -7.578,5.46 -16.723,7.65 -23.071,14.42 2.933,-0.49 5.827,-1.08 7.786,-3.17 7.147,-2.79 12.077,-6.34 18.745,-10.1 0.05,-0.43 -0.104,-1.06 0.288,-1.15 0.421,0.98 3.062,-1.52 2.597,-2.31 -1.569,1.16 -3.936,2.94 -6.345,2.31 z m 9.516,-1.44 c 0.119,0.84 0.987,0.93 1.443,1.44 0.067,-0.95 0.802,-1.42 1.154,-0.58 0.163,-0.6 0.712,-0.82 0.574,-1.73 -1.353,0.54 -1.565,1.97 -3.171,0.87 z m -33.164,2.3 c 1.258,-0.95 3.029,-1.39 4.039,-2.59 -2.111,0.38 -3.092,0.71 -4.039,2.59 z m 96.03,-0.57 c 0.725,1.29 2.569,1.46 4.04,2.02 0.607,-0.74 1.785,-0.91 2.017,-2.02 -2.633,-0.75 -3.746,-1.85 -6.057,0 z m -88.244,2.59 c 1.352,-1.04 5.888,-1.67 4.614,-3.46 -0.301,2.39 -4.295,1.09 -4.614,3.46 z m -4.037,-1.44 c 0.879,0.01 1.467,-0.26 1.73,-0.86 -0.481,0 -0.963,0 -1.44,0 0.012,0.39 -0.137,0.63 -0.29,0.86 z m 105.548,0.58 c 0.883,1.52 2.64,2.16 4.326,2.88 1.328,-1.91 -1.372,-5.52 -4.326,-2.88 z m -110.162,2.3 c 1.554,-0.41 4.703,-2.15 4.037,-2.88 -0.735,0.21 -3.461,0.34 -4.037,2.88 z m 46.429,-1.15 c -0.544,0.07 -0.637,-0.32 -1.152,-0.29 -0.014,0.4 0.135,0.63 0.289,0.87 -0.741,0.03 -1.376,0.16 -1.731,0.57 -0.854,1.47 -1.936,6.39 -3.461,7.21 5.175,-0.14 8.624,-5.28 9.227,-10.09 -1.186,0.75 -1.228,0.28 -2.595,0 -0.465,0.89 -0.249,1.12 -0.577,1.73 z m -36.624,0.87 c 0.05,0.43 -0.102,1.06 0.289,1.15 -0.06,-0.92 1.259,-0.47 1.153,-1.44 -0.695,-0.12 -0.627,0.53 -1.442,0.29 z m 88.244,3.46 c 2.061,-0.15 1.874,-2.55 3.174,-3.46 -0.951,-0.02 -1.437,-0.49 -2.597,-0.29 0.085,1.53 -0.501,2.38 -0.577,3.75 z m -94.301,-2.89 c 0.433,0.46 1.181,0.21 1.445,-0.29 -0.37,-0.39 -1.414,-0.44 -1.445,0.29 z m 21.918,1.16 c 1.054,0.89 3.063,-0.91 1.73,-1.45 -0.312,1.33 -1.306,0.66 -1.73,1.45 z m -20.473,2.02 c 1.051,-1.45 3.646,-1.35 4.324,-3.18 -2.069,0.24 -4.299,1.85 -4.324,3.18 z m 28.836,-2.02 c -0.14,-0.73 1.323,0.69 1.443,-0.29 -0.563,-0.77 -2.006,-0.35 -1.443,0.29 z m 70.942,2.3 c 1.418,-0.26 1.551,-1.84 1.729,-2.59 -0.887,0.21 -0.554,-0.79 -1.44,-0.58 -0.264,1.26 -0.841,1.76 -0.289,3.17 z m -104.106,-1.15 c 1.039,-0.11 1.837,-0.47 2.02,-1.44 -1.166,-0.01 -2.03,0.28 -2.02,1.44 z m 26.242,2.6 c 2.028,-0.57 4.273,-1.62 6.057,-3.46 -0.061,-0.33 -0.322,-0.45 -0.577,-0.58 -1.699,1.96 -4.065,2.33 -5.48,4.04 z m 11.825,-2.02 c -0.053,1.4 0.72,1.97 1.442,2.59 0.636,-1.1 1.058,-3.93 1.152,-4.61 -0.558,0.88 -1.305,2.79 -2.594,2.02 z m 60.847,18.74 c 0.226,-0.2 0.643,-1.61 0,-1.73 -0.2,0.4 -1.312,1.34 -1.441,0.87 -0.34,-1.54 2.218,-3.3 3.46,-2.6 0.389,-0.57 0.551,-1.37 0.865,-2.02 -1.476,0.62 -1.926,1.38 -2.884,-0.29 1.331,-2.22 3.232,-3.88 3.461,-7.21 -0.501,0.03 -0.896,-0.06 -1.154,-0.28 -0.169,0.6 -0.605,0.93 -0.863,1.44 0.266,0.31 1.062,0.09 0.863,0.86 -1.462,-0.1 -1.709,2.51 -3.46,1.16 0.132,-4.03 3.166,-6.61 4.326,-10.96 -0.878,0.88 -1.149,-0.16 -2.017,0.29 -0.289,1.45 -0.084,2.39 -1.734,2.88 0.423,2.91 -1.299,5.94 -3.17,7.5 0.017,1.94 0.015,3.86 -1.154,4.61 -2.823,-1.57 -1.345,-6.04 -1.153,-9.51 -1.782,0.28 -0.732,1.86 -0.865,3.46 -0.206,0.86 -0.975,2.51 -1.153,4.32 -0.249,2.52 -0.717,6.95 1.73,7.5 1.354,-2.01 0.847,-7.42 4.325,-6.34 0.153,1.78 -0.905,2.36 -2.018,2.88 -0.157,1.02 1.021,0.71 0.866,1.73 -0.184,0.49 -0.874,0.48 -1.155,0.86 0.713,0.28 -0.396,1.11 0,2.02 1.307,-0.42 1.037,-2.42 2.595,-2.59 -0.661,0.74 0.543,1.37 1.73,1.15 z m 9.516,-15.57 c 1.078,-0.03 0.825,-0.32 1.733,0 0.063,-3.18 -0.069,-4.37 -2.307,-5.19 -0.911,1.73 0.492,3.34 0.574,5.19 z m -90.262,-1.44 c 0.538,2.73 2.622,-0.87 3.748,-1.16 -1.523,-0.25 -1.924,0.54 -3.748,1.16 z m 6.345,7.21 c -0.114,0.07 -0.39,-0.12 -0.289,-0.29 3.86,-1.91 7.632,-4.6 11.248,-6.92 0.247,-1.21 -1.293,-0.63 -1.731,-1.16 0.043,0.72 -0.149,1.2 -0.577,1.45 -8.373,4.68 -15.279,9.26 -21.341,16.43 4.297,-3.35 9.171,-7.14 12.69,-9.51 z m 87.956,-7.21 c -0.18,1.73 -0.307,4.2 0.286,5.77 1.527,-0.02 0.459,-2.63 1.734,-2.89 -0.49,-1.39 -0.435,-3.15 -2.597,-3.46 0.033,0.35 0.087,0.68 0.577,0.58 z m 0.863,8.65 c 0.173,0.6 -0.356,1.89 0.291,2.02 1.191,-0.25 1.074,-2.36 2.306,-1.73 0.296,-3.39 3.577,-5.41 1.444,-8.94 -0.834,3.93 -0.494,7.34 -4.041,8.65 z m -94.875,-4.04 c -0.04,0.54 -0.189,0.97 -0.577,1.16 -2.953,1.72 -6.621,4.91 -8.94,7.49 6.045,-3.76 10.797,-8.81 17.302,-12.11 -2.793,-2.36 -4.933,3.03 -7.785,3.46 z m -7.209,-0.58 c -0.095,1.54 -1.26,1.88 -1.443,2.6 2.858,-1.76 6.254,-2.97 8.075,-5.77 -0.39,-0.09 -0.552,-0.41 -1.155,-0.29 -1.06,1.81 -3.849,3.15 -5.477,3.46 z m 6.92,13.56 c 1.087,-0.22 1.378,0.35 2.308,0.29 6.214,-5.13 11.705,-10.98 18.744,-15.29 0.124,-1.08 -0.61,-1.31 -1.153,-1.73 -6.228,5.98 -14.451,9.97 -19.899,16.73 z m -73.537,-13.56 c 0.148,-0.69 0.563,-1.71 0,-2.59 -0.069,0.41 -0.475,0.49 -0.575,0.86 1.469,-0.19 -0.543,1.44 0.575,1.73 z m 144.479,-0.57 c -0.173,-0.6 0.356,-1.9 -0.289,-2.02 0.157,1.04 -1.411,1.84 0.289,2.02 z m -36.912,0.29 c 1.098,-0.06 1.896,-0.41 2.019,-1.45 -1.019,0.14 -1.821,0.49 -2.019,1.45 z m -57.101,-0.58 c 0.035,3.84 4.169,4.46 5.48,7.79 1.933,-2.11 4.869,-3.21 6.346,-5.77 -2.119,1.17 -4.586,2.24 -7.788,2.02 -0.009,-1.24 -1.203,-1.3 -1.443,-2.31 0.16,-1 1.327,-0.98 1.443,-2.02 -1.59,-0.08 -2.642,1.02 -4.038,0.29 z m 71.232,2.6 c 0.95,-0.12 2.149,-2.71 1.44,-2.6 -0.014,1.33 -1.643,1.05 -1.44,2.6 z m -22.205,4.9 c 1.205,-0.27 1.139,-0.2 1.728,0.57 1.905,-1.65 3.922,-4.72 4.039,-7.21 -3.109,1.48 -3.105,4.53 -5.767,6.64 z m 26.819,-1.73 c 1.364,-1.33 2.905,-2.48 3.459,-4.62 -2.005,-0.33 -3.115,2.37 -3.459,4.62 z m 33.452,-2.31 c 0.166,1.07 -0.891,1.67 -0.289,2.31 0.689,-0.38 1.791,-1.85 1.154,-2.6 -0.05,0.34 -0.458,0.32 -0.865,0.29 z m -53.641,2.59 c -1.478,-0.22 -1.669,0.84 -2.018,1.74 2.98,1.7 4.433,-1.45 5.769,-3.75 -2.265,0.3 -2.868,0.53 -3.751,2.01 z m -42.968,-0.86 c -0.718,0.03 -0.892,0.54 -1.441,0 0.214,0.89 -0.793,0.56 -0.577,1.44 1.218,0.01 3.23,-1.42 1.73,-2.3 -0.012,0.39 0.136,0.63 0.288,0.86 z m 1.73,0.86 c 0.645,0.59 2.595,-1.13 2.021,-1.72 -0.413,0.83 -1.85,0.65 -2.021,1.72 z m 71.809,1.16 h 1.152 c -0.172,-0.6 0.357,-1.9 -0.289,-2.02 0.111,1.07 -1.168,0.76 -0.863,2.02 z m 25.953,1.73 c 0.89,-0.18 1.502,-2.13 1.152,-2.6 -0.435,0.82 -1.166,1.34 -1.152,2.6 z m -31.145,19.61 c 0.763,-2.09 0.611,-3.4 2.596,-4.04 1.218,-3.98 4.386,-8.27 8.65,-4.61 0.852,-4.56 0.529,-8.61 0.288,-12.4 -1.479,2.95 -3.832,6.53 -6.056,7.78 -0.112,1.14 -0.017,2.49 -1.441,2.31 0.573,2.44 -1.514,4.09 -3.174,5.19 -0.389,0.05 -0.372,-1.67 -0.863,-0.58 -1.266,2.59 -1.751,6.69 -2.596,8.37 1.078,0.31 0.823,-0.72 1.731,-0.58 0.087,-0.57 -0.39,-0.57 -0.577,-0.86 0.889,0.21 0.35,-1 1.442,-0.58 z m 32.875,-17.01 c 0.615,-0.81 2.434,-3.24 1.155,-4.04 0.155,1.18 -1.641,2.73 -1.155,4.04 z m -104.68,-0.29 c 0.037,-1.13 2.693,-1.14 1.729,-2.31 -0.555,0.61 -2.169,1.66 -1.729,2.31 z m 13.263,-1.16 c 0.233,1.86 -2.617,0.86 -2.306,3.46 1.896,-0.98 3.317,-2.45 4.614,-4.03 -1.081,-0.12 -1.639,1.16 -2.308,0.57 z m -23.646,18.46 c 0.015,-0.18 0.042,-0.34 0.289,-0.29 -1.308,2.94 -1.17,7.9 -2.885,11.25 0.568,-0.09 0.572,0.39 0.866,0.57 1.204,-1.14 2.884,-0.48 4.036,-0.86 0.421,-9.17 3.755,-18.97 5.192,-27.68 -1.303,-0.15 -2.075,-0.81 -2.885,-1.45 -0.028,2.82 -2.511,6.18 -1.44,8.94 -0.67,-0.09 -1.108,0.05 -1.444,0.29 0.221,1.03 1.321,2.72 -0.288,2.6 -0.168,0.93 0.196,1.34 0.288,2.02 -1.239,-0.79 -1.26,3.95 -1.729,4.61 z m 53.924,-15.29 c 1.386,0.08 1.982,-2.16 0.867,-2.88 -0.825,0.37 -0.175,1.83 -0.867,2.88 z m 57.103,1.45 c 0.021,-1.53 2.054,-2.55 1.44,-3.75 -0.061,0.35 -0.319,0.18 -0.577,0 -0.314,1.68 -1.281,2.51 -0.863,3.75 z m -81.324,7.49 c -0.765,0.67 -3.182,2.03 -3.172,2.02 -1.199,1.27 -2.308,4.07 -1.443,6.06 5.791,-5.65 11.072,-11.81 16.439,-17.88 -0.063,-0.22 -0.242,-0.33 -0.577,-0.29 -4.067,2.69 -7.707,6.99 -11.247,10.09 z m 25.666,-5.47 c 0.085,-0.89 1.564,-1.88 0.577,-2.89 -0.531,0.86 -2.297,2.26 -0.577,2.89 z m 46.142,1.15 c -0.4,0.01 -0.634,-0.14 -0.867,-0.29 -1.328,2.31 -1.279,4.27 -2.307,6.92 1.89,-0.97 3.799,-3.19 5.191,-5.48 -0.844,-0.02 -1.073,-0.66 -1.443,-1.15 0.961,-0.77 1.289,-2.17 2.02,-3.17 -0.502,0.02 -0.899,-0.07 -1.154,-0.29 1.075,2.01 -2.006,2.03 -1.44,3.46 z m -4.615,1.15 c -0.683,-1.27 -0.484,-1.86 0.286,-2.88 -0.033,-0.74 -0.053,-1.48 -0.863,-1.44 -1.277,0.44 -1.801,3.92 0.577,4.32 z m -87.092,-3.46 v 1.44 c 0.966,0.25 2.627,-1 1.442,-1.73 -0.263,0.51 -1.009,0.75 -1.442,0.29 z m 95.455,3.46 c 1.083,-0.36 1.557,-1.32 2.594,-1.73 -0.555,-0.12 -0.227,-1.12 -1.151,-0.86 -0.359,0.99 -0.662,2.03 -1.443,2.59 z m -87.093,0.29 c 0.331,0.91 -0.452,0.7 -0.574,1.15 2.913,0.13 3.75,-1.82 5.188,-3.17 -2.516,-0.33 -3.827,2.38 -4.614,2.02 z m -14.708,19.61 c 1.23,-0.17 1.908,0.21 2.885,0.29 0.821,-1.06 0.948,-3.17 1.732,-3.46 -2.55,-2.07 0.394,-4.52 0.863,-6.92 -1.698,-2.96 2.482,-4.75 2.019,-8.37 -1.265,-0.36 -1.849,-1.28 -1.73,-2.3 -0.668,0.09 -1.107,-0.05 -1.441,-0.29 -2.095,6.87 -3.656,13 -4.328,21.05 z m 12.113,-19.9 c 0.788,0.03 0.581,-0.48 1.155,0 0,-0.38 0,-0.77 0,-1.15 -0.289,0 -0.577,0 -0.866,0 -0.09,0.39 -0.411,0.55 -0.289,1.15 z m -69.211,1.73 c 0.063,-0.22 0.242,-0.33 0.578,-0.29 -0.157,-1.14 -0.157,-0.86 0,-2.01 -0.398,0.01 -0.634,-0.14 -0.866,-0.29 0.134,1.34 -0.56,1.84 0.288,2.59 z m 156.879,1.16 c 0.88,0.01 0.692,-1.04 1.73,-0.87 -0.145,-0.9 0.681,-1.18 -0.29,-1.44 -0.002,1.24 -1.434,1.06 -1.44,2.31 z m -157.456,4.61 c -1.067,-1.55 0.715,-2.4 0.866,-4.33 -1.162,0.21 -0.488,-1.43 -1.152,-1.73 -0.468,2.29 -1.667,5.15 0.286,6.06 z m 83.631,6.06 c 2.476,-3.39 6.765,-6.51 7.5,-10.67 -3.11,2.86 -7.346,7.5 -7.5,10.67 z m -51.043,-0.29 c 1.148,-3.81 2.403,-6.01 3.459,-9.23 -1.613,2.42 -3.91,5.7 -3.459,9.23 z m 116.794,-8.94 c -0.28,1.74 -1.843,3.72 -1.731,4.9 0.972,-1.33 3.395,-1.22 3.748,-3.17 -1.711,-0.07 -0.568,-1.65 -1.152,-2.02 -0.05,0.34 -0.455,0.31 -0.865,0.29 z m -21.053,3.17 c 1.232,-0.11 1.078,-1.61 1.73,-2.31 -0.453,-0.12 -0.246,-0.9 -1.153,-0.57 -0.372,0.78 -0.706,1.6 -0.577,2.88 z M 247.884,1373 c 2.27,-2.13 4.954,-6.01 4.614,-8.94 -0.78,0.62 -0.01,-1.06 -1.153,-1.16 -1.421,3.73 -2.83,5.87 -3.461,10.1 z m 117.37,-7.79 c 1.24,0.4 0.507,-1.8 1.443,-0.86 0.022,-0.5 -0.065,-0.9 -0.289,-1.16 -1.048,0.01 -1.266,0.85 -1.154,2.02 z m -43.835,8.08 c 3.6,-0.96 3.095,-6.09 4.328,-8.65 -1.86,2.14 -3.062,5.23 -4.328,8.65 z m -23.357,-5.48 c 1.025,-0.45 0.174,0.98 0.866,0.86 0.446,-0.42 0.253,-1.47 0.289,-2.3 -0.911,-0.05 -0.561,1.17 -1.155,1.44 z m -57.677,0.29 c 0.546,0.06 0.636,-0.33 1.155,-0.29 0.08,-0.66 -0.07,-1.09 -0.577,-1.15 -0.122,0.54 -0.824,0.52 -0.578,1.44 z m 62.291,2.88 c 0.88,-0.37 1.488,-1.01 2.306,-1.44 -0.236,-0.94 0.359,-2.5 0,-2.6 -1.05,1.07 -1.306,2.93 -2.306,4.04 z m -34.893,2.31 c 1.774,-1.56 1.901,-5.08 1.729,-6.06 -1.106,1.95 -1.204,3.1 -1.729,6.06 z m -34.029,-4.33 c 0.857,0.34 1.239,-1.21 0.577,-1.44 -0.124,0.55 -0.622,0.72 -0.577,1.44 z m 19.322,4.04 c 1.104,0.05 0.621,-1.49 1.729,-1.44 -0.639,-1.72 0.89,-2.52 -0.289,-3.17 -0.325,1.69 -1.278,2.75 -1.44,4.61 z m 12.4,10.67 c -2.581,-0.37 0.377,-5.71 -1.443,-6.63 -0.631,0.26 0.851,2.04 -0.864,1.73 0.026,1.07 0.321,0.82 0,1.73 -0.503,-0.02 -0.899,0.06 -1.154,0.29 0.202,1.7 -1.167,1.97 -1.731,2.01 -2.151,0.15 -2.538,-3.19 -2.883,-3.74 -0.289,0 -0.344,-0.24 -0.577,-0.29 0.084,1.33 -0.602,1.89 -1.442,2.3 -2.102,-0.44 -1.549,-2.47 -2.306,-3.17 -0.496,0.37 -0.358,1.37 -1.155,1.44 -4.265,0.72 -0.96,-4.29 -1.731,-5.76 -0.72,1.68 -1.551,2.37 -2.594,3.17 -0.599,-0.56 -1.397,-0.91 -2.019,-1.44 0,-0.87 0,-1.73 0,-2.6 -1.279,0.22 -0.911,-1.2 -1.729,-1.44 0.49,4.07 -5.945,5.12 -4.04,0 -1.53,1.35 -2.182,3.58 -3.748,4.9 -1.664,0.13 -2.121,-0.68 -2.883,-2.02 0.05,0.82 -1.888,-0.35 -1.442,0.87 1.43,1.45 4.353,1.41 4.614,4.04 1.164,-0.4 1.021,0.51 1.441,0.86 0.875,-0.29 3.063,0.58 3.461,1.73 -1.348,0.05 -0.956,0.74 -2.306,0.29 -3.068,-2.29 -5.487,-4.87 -8.942,-5.48 -0.739,-0.13 -1.406,0.47 -2.018,0.29 -1.263,-0.38 -1.566,-2.16 -3.171,-2.02 -0.185,-2.02 -0.277,-2.86 -0.577,-4.33 -0.324,0.72 -1.962,1.07 -2.596,0.58 -0.074,4.35 2.033,9.93 1.442,15.29 -0.655,-0.69 -0.862,0.35 -1.153,0.86 1.737,1.1 2.389,4.34 4.036,6.92 2.686,-2.64 2.866,2.78 3.751,4.04 1.51,-1.75 -0.442,-5.22 1.152,-6.92 0.739,0.03 1.375,0.16 1.73,0.57 -0.636,0.64 0.286,1.18 0,2.31 1.539,-0.1 0.769,1.25 2.307,0.58 2.401,5.78 2.696,9.93 5.191,14.71 1.042,-0.56 0.12,-0.83 0,-1.74 0.725,-0.43 1.014,-1.29 1.443,-2.01 -2.743,-3.27 -1.844,-8.28 -2.595,-11.54 0.91,-0.04 1.739,-0.01 2.018,0.58 0.112,3.23 1.877,5.86 0.866,8.07 2.004,1.78 1.873,4.39 2.593,6.35 0.493,-1.09 0.476,0.62 0.866,0.57 0.235,-3.83 -4.113,-8.86 -2.018,-12.69 1.471,-0.22 1.497,1.01 2.595,1.16 -0.121,1.89 -0.272,3.39 0.577,3.75 -0.305,0.3 -1.533,1.12 -0.865,1.44 0.251,-0.42 0.431,-0.91 1.154,-0.87 -0.511,2.47 1.008,4.8 2.019,6.64 0.614,-1.47 0.387,-3.11 1.44,-4.62 -0.069,-1.93 -1.596,-5.36 0,-6.92 3.631,-0.43 0.574,6.32 2.886,6.63 -0.837,-0.84 1.26,0.46 1.151,-0.28 -0.451,-1.93 0.272,-4.92 1.443,-5.48 0.717,-0.05 1.399,-0.06 1.442,0.57 -0.425,1.5 -0.268,3.58 -0.288,5.48 0.515,0.35 2.116,-0.23 2.306,0.29 -0.117,1.92 -0.552,3.27 -2.595,3.17 -0.881,-0.27 -0.904,-1.4 -2.019,-1.44 -0.681,1.98 -3.164,0.21 -4.036,-0.29 -0.076,0.85 0.652,0.89 0.577,1.73 -1.253,0.38 -0.648,2.62 -2.018,2.89 -0.77,-0.21 -2.228,-1.22 -2.597,-0.87 0.684,1.44 -1.865,3.26 -3.461,1.73 0.5,-0.71 -0.038,-2.31 -1.152,-2.3 -0.366,0.78 -0.458,1.84 -0.866,2.59 -2.78,-1.04 -2.83,-4.09 -7.209,-2.59 -0.207,1.1 1.443,1.11 0.577,2.01 0.718,0.15 1.185,0.55 1.729,0.87 1.821,5.96 7.412,6.56 12.69,9.23 4.329,-2.69 7.878,1.94 12.112,0.86 0.209,1 1.613,0.81 2.307,0.58 4.021,2.77 10.053,-0.32 14.419,0.29 0.399,-0.18 0.042,-1.11 0.575,-1.16 3.36,-1.22 6.041,-3.45 8.652,-4.61 0.616,0.44 1.571,0.2 1.73,0 -0.502,-0.35 1.608,-2.23 2.019,-0.87 3.694,-2.07 5.879,-5.65 8.653,-8.65 -0.24,-1.17 -0.045,-0.99 0,-2.3 -4.164,-3 0.908,-14.02 -3.174,-18.46 0.28,-0.68 0.504,-1.42 1.73,-1.15 -0.164,-0.51 0.351,-1.7 -0.288,-1.73 -1.725,1.06 -3.239,5.08 -2.019,7.2 -1.317,3.88 -0.569,7.21 0,10.39 -0.289,0 -0.577,0 -0.863,0 0.483,2.12 0.933,3.11 0.286,4.9 -0.205,0.78 1.361,-0.21 1.154,0.58 -0.908,-0.14 -0.216,1.32 -0.866,1.44 -0.429,-0.05 -1.062,0.1 -1.152,-0.29 0.622,-0.51 0.397,-2.67 0.289,-3.75 -0.49,-4.85 -0.934,-10.15 -0.577,-15.86 -0.644,0.54 -1.645,-0.47 -2.308,-0.87 -0.483,0.48 -1.168,0.76 -1.155,1.73 0.432,0.05 1.067,-0.1 1.155,0.29 0.117,2 -0.942,3.63 -3.461,3.75 0.085,7.27 0.091,11.36 1.443,18.17 -0.007,-0.04 -0.526,0.03 -0.577,0 -0.061,1.02 1.351,0.57 1.155,1.73 -0.292,0 -0.345,0.23 -0.578,0.29 -1.974,-2.44 -1.661,-5.64 -1.731,-8.36 -1.244,-1.62 -0.585,-4.22 -0.865,-7.21 -0.577,0 -1.154,0 -1.729,0 -0.596,2.29 -3.276,2.49 -4.902,3.75 1.006,3.83 -0.623,8.46 1.44,10.95 -0.497,0.18 0.022,1.37 -0.577,1.45 -2.75,-3.31 -0.754,-9.73 -2.595,-12.98 1.614,-2.59 0.647,-8.04 -1.441,-10.1 1.225,0.06 0.328,-1.8 0.289,-2.3 -0.77,0 -1.54,0 -2.308,0 -0.23,-0.54 -0.484,-1.06 -0.577,-1.73 -0.888,0.2 -0.554,0.2 -1.44,0 1.087,2.58 1.039,5.51 0.286,6.05 0.162,0 0.328,-0.23 0,-0.28 -0.821,0.79 0.565,0.65 0.865,1.15 -1.277,0.51 -1.008,2.76 0,3.46 -1.302,0.51 -0.832,3.05 -0.577,4.33 1.404,0.17 1.483,0.17 2.884,0 -0.348,0.99 -1.3,1.38 -2.595,1.44 -0.031,1.45 0.729,2.84 -0.863,3.17 -0.311,-0.91 -0.201,-1.53 0,-2.6 -1.717,0.33 -3.399,1.05 -4.615,-0.28 -1.255,1.43 -4.104,2.49 -3.75,4.61 -0.599,-0.07 -0.079,-1.27 -0.577,-1.44 -4.401,0.88 -4.729,-5.67 -1.73,-7.21 2.17,0.93 -0.195,3.34 0.578,5.48 0.961,-0.49 0.983,0.18 2.017,0.29 1.941,-2.31 3.88,-3.66 7.788,-3.46 0.292,-1.26 -0.599,-1.33 -0.867,-2.02 1.406,-3.57 -0.274,-7.56 0.578,-12.4 -3.607,1.13 -3.195,-3.81 -4.037,-6.35 -0.044,1.78 -1.442,2.21 -2.884,2.6 -0.049,0.81 0.246,1.97 -0.578,2.02 -0.406,-0.66 -1.877,-0.24 -1.729,-1.45 0.723,-0.21 0.911,-0.03 1.441,-0.86 0.028,0.45 -0.037,1 0.577,0.86 -0.014,-0.39 0.137,-0.63 0.289,-0.86 z m 20.473,-9.52 c 1.185,0.3 1.156,0.13 2.596,0.29 0.366,-1.47 2.136,-3.05 2.019,-4.04 -1.464,1.33 -3.61,1.97 -4.615,3.75 z m 43.258,-1.15 c 0.316,1.17 -0.017,1.68 -0.289,2.88 -0.153,1.67 0.517,1 0.289,-0.29 0.454,-0.02 0.225,-0.73 0.865,-0.57 -0.405,-1.3 0.874,-2.57 -0.288,-2.89 0.017,0.5 -0.223,0.74 -0.577,0.87 z m -23.647,3.17 c -0.959,1.85 -1.729,5.73 1.441,6.06 1.203,-0.81 -0.775,-4.57 1.443,-5.48 -0.619,-1.7 -0.378,-2.4 0,-4.04 -2.949,-1.27 -3.809,1.8 -2.884,3.46 z m -52.773,-0.58 c 0.079,-0.72 1.238,-1.63 0,-2.01 0.396,0.91 -0.714,1.73 0,2.01 z m 46.718,1.16 c 1.333,-0.4 1.348,-2.12 2.306,-2.88 -1.311,0.41 -2.043,1.41 -2.306,2.88 z m 2.594,-0.29 h 1.443 c -0.112,-0.88 0.757,-1.47 -0.289,-1.73 0.051,1.01 -0.974,0.95 -1.154,1.73 z m 29.703,4.04 c 0.209,-1.04 1.822,-3.45 0.29,-4.33 -0.015,1.34 -1.179,3.04 -0.29,4.33 z m -50.755,-1.73 c 1.007,-0.05 1.453,-0.67 1.733,-1.45 -1.115,-0.05 -1.66,0.46 -1.733,1.45 z m -14.418,2.3 c 1.236,-0.3 0.726,-2.35 1.731,-2.88 -0.89,0.21 -0.556,-0.79 -1.442,-0.58 0.003,1.26 0.095,2.6 -0.289,3.46 z m 36.913,-1.44 c 0.331,-0.84 0.436,-1.7 -0.289,-2.02 0.171,0.6 -0.357,1.9 0.289,2.02 z m -21.051,-0.29 c -0.059,2.93 -1.951,4.01 -2.596,6.35 1.392,0.06 -0.082,0.91 -0.289,1.15 0.319,0.55 0.718,1.01 0.863,1.73 -1.546,0.92 0.557,2.18 -0.574,3.17 0.544,-0.06 0.636,0.33 1.152,0.29 2.863,-1.93 0.052,-9.53 3.75,-11.24 -0.788,-0.73 -0.238,-1.11 -0.288,-2.31 -1.117,-0.16 -1.188,0.73 -2.018,0.86 z m 3.747,3.46 c -1.079,1.76 -0.955,5.08 -1.152,7.21 0.716,0.05 0.892,-0.45 1.44,-0.57 -0.266,-2.98 -0.025,-6.88 -0.288,-9.81 -1.227,0.02 -0.595,1.9 -1.441,2.31 0.981,-0.51 1.073,0.09 1.441,0.86 z m -14.419,2.31 c 0.47,-1.55 -0.1,-3.16 0.289,-5.19 -0.289,0 -0.578,0 -0.866,0 0.103,1.61 -0.751,4.41 0.577,5.19 z m 4.902,1.44 c 1.397,-1.1 0.994,-4 2.019,-5.48 -2.843,-1.67 -3.302,3.94 -2.019,5.48 z m 12.113,2.6 c -0.075,-1.23 1.232,-1.08 1.44,-2.02 0.301,-0.32 -0.743,-1.74 -1.729,-1.73 0.185,1.16 -0.375,3.07 0.289,3.75 z m 12.977,-1.44 c 1.042,-0.76 -0.112,-1.74 -1.154,-2.02 -0.02,1.07 0.465,1.65 1.154,2.02 z m -3.172,14.7 c 2.38,0.04 -0.103,1.51 0.866,2.6 1.136,0.02 1.286,-1.96 0.864,-2.6 1.285,-2.66 2.975,-5.9 2.307,-9.51 -1.249,-0.77 -1.476,-2.56 -3.459,-2.6 -0.726,3.58 -0.101,7.77 -0.578,12.11 z m -18.455,-8.36 c 0.983,1.1 -0.458,3.52 0,5.48 0.565,-0.09 0.57,0.39 0.863,0.58 1.164,-1.53 3.333,-3.27 5.479,-2.89 0.269,-0.97 0.306,-2.4 0.579,-4.03 -1.594,-0.71 -3.516,0.29 -4.614,-1.74 0.365,2.67 -1.218,2.76 -2.307,2.6 z m -47.007,6.35 c -0.471,1.24 -0.697,1.35 -1.154,2.88 1.028,0.46 1.364,0.76 0.576,1.73 1.46,-0.12 0.911,1.78 2.021,2.02 -0.124,-0.8 1.075,-0.27 1.151,-0.87 -0.684,-4.22 -2.071,-8.61 -3.459,-11.24 0.181,2.48 -0.712,4.32 0.865,5.48 z m -5.192,1.44 c -0.145,-0.91 0.681,-1.18 -0.288,-1.44 -0.048,0.33 -0.456,0.31 -0.865,0.28 -0.088,0.99 1.523,2.91 0,3.46 1.171,2.67 3.969,2.32 6.056,4.33 -0.674,-2.11 -2.324,-3.25 -3.748,-4.61 0.566,-0.81 -0.964,-2.56 -1.155,-2.02 z m 26.531,21.91 c 0.496,-1.19 -1.308,-1.54 -1.729,-0.86 0.37,0.49 0.947,0.78 1.729,0.86 z m -4.326,3.75 c 2.756,0.53 4.071,2.3 6.058,2.89 -0.003,-1.48 0.42,-1.89 0,-3.18 -1.783,0.15 -3.201,-0.06 -3.461,-1.44 -2.437,0.48 -3.821,-3.16 -6.345,-2.59 0.243,2.45 3.291,2.09 3.748,4.32 z"
         id="path457" />
      <path
         d="m 338.724,1294.27 c 0.204,0.75 -3.39,4.59 -5.478,3.17 -1.199,-1.22 1.979,-2.03 2.593,-1.44 0.507,-0.55 0.612,-1.5 0.867,-2.31 1.001,-0.1 1.096,1.47 2.018,0.58 z"
         id="path459" />
      <path
         d="m 265.476,1348.2 c 0.649,-0.68 -0.239,0.76 0,1.44 -0.925,-0.58 -0.903,1.14 -1.155,0.29 0.023,0.12 -0.622,1.54 0,2.02 -0.347,0.42 -1.261,0.27 -0.863,1.44 -1.064,-4.93 2.491,-8.76 2.881,-13.55 0.772,0 0.865,1.69 1.444,0.28 0.87,0.44 -0.24,1.27 0,2.02 -0.38,0.3 -1.063,0.28 -1.444,0.58 0.257,1.47 1.204,3.18 -0.863,3.46 1.277,1.37 -1.854,1.51 -0.578,2.88 0.27,-0.21 0.437,-0.52 0.578,-0.86 z"
         id="path461" />
      <path
         d="m 273.838,1409.91 c 0.471,0.04 -0.275,1.23 -0.863,1.15 0.229,-1.26 -1.214,-3.55 0.574,-3.74 0.754,0.36 -0.615,3.04 0.289,2.59 z"
         id="path463" />
      <path
         d="m 264.321,1409.05 c 1.213,1.24 1.073,4.22 1.155,6.92 -0.544,-0.03 -0.202,-0.96 -0.866,-0.87 0.087,-0.59 0.577,-0.77 0.866,-1.15 -1.824,-1.25 -1.004,-2.97 -1.155,-4.9 z"
         id="path465" />
      <path
         d="m 180.98,1186.42 c -1.232,4.8 2.136,11.15 3.173,15.86 -0.817,0.24 -0.749,-0.41 -1.443,-0.29 -1.854,-5.51 -2.959,-10.39 -4.037,-15.86 0.563,-0.53 1.615,0.08 2.307,0.29 z"
         id="path467" />
      <path
         d="m 265.476,1188.15 c 3.434,1.15 -0.476,7.06 0.574,9.51 -0.008,1.05 -1.186,0.93 -1.44,1.73 0.05,0.86 0.776,1.79 0.288,2.31 -2.16,-4.36 1.88,-9.24 0,-12.4 -0.208,-0.79 0.574,-0.58 0.578,-1.15 z"
         id="path469" />
      <path
         d="m 386.019,1290.81 c -0.575,-2.06 -5.928,1.3 -6.634,-2.31 1.039,0.87 2.56,-1.71 0.865,-2.02 -1.922,0.58 -2.114,2.89 -4.325,3.18 -0.382,-2.47 2.117,-5.83 4.614,-6.06 -0.126,0.35 -0.368,0.59 -0.866,0.58 1.235,-0.08 0.77,1.54 2.017,1.44 -0.35,1.32 1.202,1.6 0.29,2.59 1.993,1.66 4.154,0.12 5.769,1.16 -0.249,0.23 -0.171,0.79 -0.577,0.86 1.227,1.08 4.259,0.57 5.768,0.58 10e-4,0.57 0.786,0.37 0.575,1.15 -1.74,-0.88 -3.699,0.19 -6.054,-0.28 -0.471,0.96 -2.038,1.39 -1.442,2.59 -0.789,0.21 -0.581,-0.57 -1.155,-0.58 0.981,-0.58 -0.41,-3.6 1.155,-2.88 z"
         id="path471" />
      <path
         d="m 228.274,1281.58 c 0.975,-0.11 0.455,1.28 1.729,0.87 -0.289,0.38 -0.474,0.87 -0.863,1.15 1.84,3.19 0.453,6.65 2.883,10.38 0.083,0.51 -1.358,0.89 -0.577,1.16 -1.853,0.14 -2.029,-2.94 -1.443,-4.91 -2.455,-1.82 -0.549,-6.45 -2.592,-8.36 0.407,0.03 0.816,0.05 0.863,-0.29 z"
         id="path473" />
      <path
         d="m 272.397,1339.26 c 0.464,-0.08 0.497,0.27 0.864,0.29 -0.096,0.96 -0.836,1.28 -0.575,2.59 -0.489,0.41 -1.666,-0.46 -1.444,1.16 1.495,-1.39 0.803,1.38 -0.575,1.15 1.561,1.36 -2.138,4.3 -1.155,7.5 -0.206,0.78 1.359,-0.21 1.155,0.57 0.843,-0.21 0.557,-1.55 1.73,-1.44 -0.461,2.31 -1.041,3.91 -1.73,6.35 -0.556,-0.49 -0.371,-2.66 0,-3.18 -0.045,-0.63 -0.728,-0.61 -1.443,-0.57 0.109,-0.98 -0.499,-1.23 -0.864,-1.73 0.637,-3.91 1.282,-7.47 2.882,-11.54 1.329,0.19 1.673,-0.16 1.155,-1.15 z"
         id="path475" />
    </g>
  </g>
</svg>
