<svg xmlns="http://www.w3.org/2000/svg" version="1.1" xmlns:xlink="http://www.w3.org/1999/xlink" xmlns:svgjs="http://svgjs.dev/svgjs" width="1000" height="388" viewBox="0 0 1000 388"><g transform="matrix(1,0,0,1,-0.6060605419127683,0.0705089947397255)"><svg viewBox="0 0 396 154" data-background-color="#ffffff" preserveAspectRatio="xMidYMid meet" height="388" width="1000" xmlns="http://www.w3.org/2000/svg" xmlns:xlink="http://www.w3.org/1999/xlink"><g id="tight-bounds" transform="matrix(1,0,0,1,0.24000002540253718,-0.027985528839991503)"><svg viewBox="0 0 395.52 154.05596943204853" height="154.05596943204853" width="395.52"><g><svg viewBox="0 0 395.52 154.05596943204853" height="154.05596943204853" width="395.52"><g><svg viewBox="0 0 395.52 154.05596943204853" height="154.05596943204853" width="395.52"><g transform="matrix(1,0,0,1,0,115.54270882598792)"><svg viewBox="0 0 395.52 38.51326060606061" height="38.51326060606061" width="395.52"><g id="textblocktransform"><svg viewBox="0 0 395.52 38.51326060606061" height="38.51326060606061" width="395.52" id="textblock"><g><svg viewBox="0 0 395.52 38.51326060606061" height="38.51326060606061" width="395.52"><g transform="matrix(1,0,0,1,0,0)"><svg width="395.52" viewBox="1.7000000476837158 -35.54999923706055 371.2200012207031 36.14999771118164" height="38.51326060606061" data-palette-color="#dbad5c"></svg></g></svg></g></svg></g></svg></g><g transform="matrix(1,0,0,1,135.9354687847903,0)"><svg viewBox="0 0 123.64906243041942 106.45065231515154" height="106.45065231515154" width="123.64906243041942"><g><svg xmlns="http://www.w3.org/2000/svg" xmlns:xlink="http://www.w3.org/1999/xlink" version="1.1" x="0" y="0" viewBox="0.021549105644226074 6.045499801635742 99.9959945678711 86.0875015258789" enable-background="new 0 0 100 100" xml:space="preserve" width="123.64906243041942" height="106.45065231515154" class="icon-icon-0" data-fill-palette-color="accent" id="icon-0"><g fill="#969976" data-fill-palette-color="accent"><path d="M66.667 47.942c-9.058-0.646-12.39 2.458-14.418 8.087-1.034-14.847-15.533-16.172-15.533-16.172C31.125 56.688 48.723 61.88 49.733 62.01c-0.724 2.093-1.153 4.692-1.332 7.391-2.514-3.138-7.777-3.545-9.578-2.157 0 0 1.767 6.756 9.485 5.702 0.059 5.087 0.931 9.859 2.313 11.527 0.384 0.463 0.937 0.701 1.493 0.701 0.437 0 0.876-0.146 1.238-0.445 0.826-0.682 0.942-1.908 0.261-2.735-1.592-1.936-2.35-16.015 0.527-20.329C65.559 58.788 66.667 47.942 66.667 47.942z" fill="#969976" data-fill-palette-color="accent"></path><path d="M98.569 42.801L52.4 6.857c-1.39-1.082-3.337-1.082-4.726 0L1.506 42.801c-1.677 1.306-1.978 3.722-0.673 5.399 1.305 1.676 3.921 1.977 5.598 0.673L11 45.47v43.776c0 1.594 0.907 2.886 2.5 2.886S16 90.84 16 89.246v-48.27L49.5 14.77 83 40.977v48.27c0 1.594 1.408 2.886 3 2.886 1.594 0 3-1.292 3-2.886V45.47l4.606 3.403c0.703 0.545 1.654 0.811 2.478 0.811 1.146 0 2.343-0.51 3.1-1.483C100.489 46.522 100.245 44.106 98.569 42.801z" fill="#969976" data-fill-palette-color="accent"></path></g></svg></g></svg></g><g></g></svg></g></svg></g><defs></defs></svg><rect width="395.52" height="154.05596943204853" fill="none" stroke="none" visibility="hidden"></rect></g></svg></g></svg>