<svg xmlns="http://www.w3.org/2000/svg" version="1.1" xmlns:xlink="http://www.w3.org/1999/xlink" xmlns:svgjs="http://svgjs.dev/svgjs" width="1000" height="388" viewBox="0 0 1000 388"><g transform="matrix(1,0,0,1,-0.6060605419127683,0.0705089947397255)"><svg viewBox="0 0 396 154" data-background-color="#ffffff" preserveAspectRatio="xMidYMid meet" height="388" width="1000" xmlns="http://www.w3.org/2000/svg" xmlns:xlink="http://www.w3.org/1999/xlink"><g id="tight-bounds" transform="matrix(1,0,0,1,0.24000002540253718,-0.027985528839991503)"><svg viewBox="0 0 395.52 154.05596943204853" height="154.05596943204853" width="395.52"><g><svg viewBox="0 0 395.52 154.05596943204853" height="154.05596943204853" width="395.52"><g><svg viewBox="0 0 395.52 154.05596943204853" height="154.05596943204853" width="395.52"><g transform="matrix(1,0,0,1,0,115.54270882598792)"><svg viewBox="0 0 395.52 38.51326060606061" height="38.51326060606061" width="395.52"><g id="textblocktransform"><svg viewBox="0 0 395.52 38.51326060606061" height="38.51326060606061" width="395.52" id="textblock"><g><svg viewBox="0 0 395.52 38.51326060606061" height="38.51326060606061" width="395.52"><g transform="matrix(1,0,0,1,0,0)"><svg width="395.52" viewBox="1.7000000476837158 -35.54999923706055 371.2200012207031 36.14999771118164" height="38.51326060606061" data-palette-color="#dbad5c"><path d="M1.7-34.85L25.3-34.85 25.3-31.15 15.8-31.15 15.8 0 11.25 0 11.25-31.15 1.7-31.15 1.7-34.85ZM53.2-34.85L57.75-34.85 57.75 0 53.2 0 53.2-15.8 35.45-15.8 35.45 0 30.9 0 30.9-34.85 35.45-34.85 35.45-19.55 53.2-19.55 53.2-34.85ZM81.3 0.35Q76.45 0.35 72.45-1.93 68.45-4.2 66.12-8.28 63.8-12.35 63.8-17.45L63.8-17.45Q63.8-22.55 66.12-26.63 68.45-30.7 72.45-32.98 76.45-35.25 81.3-35.25L81.3-35.25Q86.2-35.25 90.2-32.98 94.2-30.7 96.5-26.65 98.8-22.6 98.8-17.45L98.8-17.45Q98.8-12.3 96.5-8.25 94.2-4.2 90.2-1.93 86.2 0.35 81.3 0.35L81.3 0.35ZM81.3-3.6Q84.95-3.6 87.87-5.3 90.8-7 92.47-10.15 94.15-13.3 94.15-17.45L94.15-17.45Q94.15-21.65 92.47-24.78 90.8-27.9 87.9-29.6 85-31.3 81.3-31.3L81.3-31.3Q77.59-31.3 74.7-29.6 71.8-27.9 70.12-24.78 68.45-21.65 68.45-17.45L68.45-17.45Q68.45-13.3 70.12-10.15 71.8-7 74.72-5.3 77.65-3.6 81.3-3.6L81.3-3.6ZM135.29-34.6L140.14-34.6 140.14 0 135.59 0 135.59-25.8 124.09 0 120.89 0 109.34-25.85 109.34 0 104.79 0 104.79-34.6 109.69-34.6 122.49-6 135.29-34.6ZM171.24 0L168.44-7.75 153.24-7.75 150.44 0 145.64 0 158.24-34.65 163.49-34.65 176.04 0 171.24 0ZM154.54-11.45L167.14-11.45 160.84-29.05 154.54-11.45ZM192.59 0.35Q189.14 0.35 186.41-0.88 183.69-2.1 182.14-4.28 180.59-6.45 180.54-9.3L180.54-9.3 185.39-9.3Q185.64-6.85 187.41-5.18 189.19-3.5 192.59-3.5L192.59-3.5Q195.84-3.5 197.71-5.13 199.59-6.75 199.59-9.3L199.59-9.3Q199.59-11.3 198.49-12.55 197.39-13.8 195.74-14.45 194.09-15.1 191.29-15.85L191.29-15.85Q187.84-16.75 185.76-17.65 183.69-18.55 182.21-20.48 180.74-22.4 180.74-25.65L180.74-25.65Q180.74-28.5 182.19-30.7 183.64-32.9 186.26-34.1 188.89-35.3 192.29-35.3L192.29-35.3Q197.19-35.3 200.31-32.85 203.44-30.4 203.84-26.35L203.84-26.35 198.84-26.35Q198.59-28.35 196.74-29.88 194.89-31.4 191.84-31.4L191.84-31.4Q188.99-31.4 187.19-29.93 185.39-28.45 185.39-25.8L185.39-25.8Q185.39-23.9 186.46-22.7 187.54-21.5 189.11-20.88 190.69-20.25 193.54-19.45L193.54-19.45Q196.99-18.5 199.09-17.57 201.19-16.65 202.69-14.73 204.19-12.8 204.19-9.5L204.19-9.5Q204.19-6.95 202.84-4.7 201.49-2.45 198.84-1.05 196.19 0.35 192.59 0.35L192.59 0.35ZM256.93 0L250.98 0 246.43-4.6Q243.88-1.95 240.98-0.68 238.08 0.6 234.43 0.6L234.43 0.6Q230.83 0.6 228.06-0.7 225.28-2 223.76-4.4 222.23-6.8 222.23-10L222.23-10Q222.23-13.65 224.31-16.43 226.38-19.2 230.43-20.8L230.43-20.8Q228.83-22.7 228.13-24.3 227.43-25.9 227.43-27.8L227.43-27.8Q227.43-30 228.56-31.78 229.68-33.55 231.78-34.55 233.88-35.55 236.63-35.55L236.63-35.55Q239.33-35.55 241.33-34.5 243.33-33.45 244.33-31.58 245.33-29.7 245.23-27.4L245.23-27.4 240.68-27.4Q240.73-29.45 239.53-30.63 238.33-31.8 236.43-31.8L236.43-31.8Q234.43-31.8 233.21-30.68 231.98-29.55 231.98-27.8L231.98-27.8Q231.98-26.3 232.81-24.9 233.63-23.5 235.58-21.45L235.58-21.45 245.98-11 246.88-12.4 250.28-18.1 255.18-18.1 251.08-11Q250.23-9.5 249.08-7.85L249.08-7.85 256.93 0ZM234.43-3.3Q237.13-3.3 239.31-4.35 241.48-5.4 243.43-7.6L243.43-7.6 233.18-17.9Q226.78-15.45 226.78-10.15L226.78-10.15Q226.78-7.2 228.91-5.25 231.03-3.3 234.43-3.3L234.43-3.3ZM285.58 0.35Q282.13 0.35 279.4-0.88 276.68-2.1 275.13-4.28 273.58-6.45 273.53-9.3L273.53-9.3 278.38-9.3Q278.63-6.85 280.4-5.18 282.18-3.5 285.58-3.5L285.58-3.5Q288.83-3.5 290.7-5.13 292.58-6.75 292.58-9.3L292.58-9.3Q292.58-11.3 291.48-12.55 290.38-13.8 288.73-14.45 287.08-15.1 284.28-15.85L284.28-15.85Q280.83-16.75 278.75-17.65 276.68-18.55 275.2-20.48 273.73-22.4 273.73-25.65L273.73-25.65Q273.73-28.5 275.18-30.7 276.63-32.9 279.25-34.1 281.88-35.3 285.28-35.3L285.28-35.3Q290.18-35.3 293.3-32.85 296.43-30.4 296.83-26.35L296.83-26.35 291.83-26.35Q291.58-28.35 289.73-29.88 287.88-31.4 284.83-31.4L284.83-31.4Q281.98-31.4 280.18-29.93 278.38-28.45 278.38-25.8L278.38-25.8Q278.38-23.9 279.45-22.7 280.53-21.5 282.1-20.88 283.68-20.25 286.53-19.45L286.53-19.45Q289.98-18.5 292.08-17.57 294.18-16.65 295.68-14.73 297.18-12.8 297.18-9.5L297.18-9.5Q297.18-6.95 295.83-4.7 294.48-2.45 291.83-1.05 289.18 0.35 285.58 0.35L285.58 0.35ZM327.28 0L324.48-7.75 309.28-7.75 306.48 0 301.68 0 314.28-34.65 319.53-34.65 332.08 0 327.28 0ZM310.58-11.45L323.18-11.45 316.88-29.05 310.58-11.45ZM368.07-34.6L372.92-34.6 372.92 0 368.37 0 368.37-25.8 356.87 0 353.67 0 342.12-25.85 342.12 0 337.57 0 337.57-34.6 342.47-34.6 355.27-6 368.07-34.6Z" opacity="1" transform="matrix(1,0,0,1,0,0)" fill="#dbad5c" class="wordmark-text-0" data-fill-palette-color="primary" id="text-0"></path></svg></g></svg></g></svg></g></svg></g><g transform="matrix(1,0,0,1,135.9354687847903,0)"><svg viewBox="0 0 123.64906243041942 106.45065231515154" height="106.45065231515154" width="123.64906243041942"><g><svg xmlns="http://www.w3.org/2000/svg" xmlns:xlink="http://www.w3.org/1999/xlink" version="1.1" x="0" y="0" viewBox="0.021549105644226074 6.045499801635742 99.9959945678711 86.0875015258789" enable-background="new 0 0 100 100" xml:space="preserve" width="123.64906243041942" height="106.45065231515154" class="icon-icon-0" data-fill-palette-color="accent" id="icon-0"><g fill="#969976" data-fill-palette-color="accent"><path d="M66.667 47.942c-9.058-0.646-12.39 2.458-14.418 8.087-1.034-14.847-15.533-16.172-15.533-16.172C31.125 56.688 48.723 61.88 49.733 62.01c-0.724 2.093-1.153 4.692-1.332 7.391-2.514-3.138-7.777-3.545-9.578-2.157 0 0 1.767 6.756 9.485 5.702 0.059 5.087 0.931 9.859 2.313 11.527 0.384 0.463 0.937 0.701 1.493 0.701 0.437 0 0.876-0.146 1.238-0.445 0.826-0.682 0.942-1.908 0.261-2.735-1.592-1.936-2.35-16.015 0.527-20.329C65.559 58.788 66.667 47.942 66.667 47.942z" fill="#969976" data-fill-palette-color="accent"></path><path d="M98.569 42.801L52.4 6.857c-1.39-1.082-3.337-1.082-4.726 0L1.506 42.801c-1.677 1.306-1.978 3.722-0.673 5.399 1.305 1.676 3.921 1.977 5.598 0.673L11 45.47v43.776c0 1.594 0.907 2.886 2.5 2.886S16 90.84 16 89.246v-48.27L49.5 14.77 83 40.977v48.27c0 1.594 1.408 2.886 3 2.886 1.594 0 3-1.292 3-2.886V45.47l4.606 3.403c0.703 0.545 1.654 0.811 2.478 0.811 1.146 0 2.343-0.51 3.1-1.483C100.489 46.522 100.245 44.106 98.569 42.801z" fill="#969976" data-fill-palette-color="accent"></path></g></svg></g></svg></g><g></g></svg></g></svg></g><defs></defs></svg><rect width="395.52" height="154.05596943204853" fill="none" stroke="none" visibility="hidden"></rect></g></svg></g></svg>